<svg xmlns="http://www.w3.org/2000/svg" xmlns:xlink="http://www.w3.org/1999/xlink" width="784" zoomAndPan="magnify" viewBox="0 0 588 478.499986" height="638" preserveAspectRatio="xMidYMid meet" version="1.0"><defs><g/><clipPath id="52ebbe69ba"><path d="M 235 54 L 501 54 L 501 478 L 235 478 Z M 235 54 " clip-rule="nonzero"/></clipPath></defs><g clip-path="url(#52ebbe69ba)"><path fill="#ff3131" d="M 288.554688 54.703125 C 292.308594 54.703125 296.058594 54.800781 299.808594 55 C 303.558594 55.199219 307.300781 55.5 311.035156 55.894531 C 314.765625 56.292969 318.488281 56.789062 322.195312 57.382812 C 325.902344 57.976562 329.589844 58.671875 333.261719 59.460938 C 336.933594 60.25 340.578125 61.136719 344.203125 62.121094 C 347.828125 63.105469 351.421875 64.183594 354.988281 65.359375 C 358.554688 66.53125 362.085938 67.800781 365.585938 69.164062 C 369.085938 70.523438 372.546875 71.976562 375.96875 73.523438 C 379.390625 75.066406 382.769531 76.703125 386.101562 78.425781 C 389.4375 80.152344 392.726562 81.960938 395.964844 83.859375 C 399.203125 85.757812 402.390625 87.742188 405.527344 89.808594 C 408.660156 91.878906 411.738281 94.027344 414.757812 96.257812 C 417.777344 98.488281 420.734375 100.796875 423.632812 103.183594 C 426.53125 105.574219 429.363281 108.035156 432.132812 110.574219 C 434.898438 113.109375 437.597656 115.71875 440.226562 118.402344 C 442.855469 121.082031 445.410156 123.832031 447.890625 126.648438 C 450.375 129.464844 452.78125 132.34375 455.113281 135.289062 C 457.441406 138.230469 459.691406 141.234375 461.863281 144.300781 C 464.035156 147.363281 466.125 150.480469 468.128906 153.65625 C 470.136719 156.828125 472.054688 160.054688 473.890625 163.332031 C 475.722656 166.605469 477.472656 169.929688 479.128906 173.296875 C 480.789062 176.664062 482.355469 180.074219 483.832031 183.527344 C 485.3125 186.980469 486.695312 190.46875 487.988281 193.992188 C 489.28125 197.519531 490.480469 201.074219 491.582031 204.664062 C 492.6875 208.253906 493.695312 211.867188 494.609375 215.511719 C 495.519531 219.152344 496.335938 222.816406 497.054688 226.5 C 497.773438 230.1875 498.390625 233.886719 498.914062 237.605469 C 499.433594 241.324219 499.859375 245.054688 500.183594 248.792969 C 500.507812 252.535156 500.730469 256.28125 500.855469 260.035156 C 500.980469 263.789062 501.007812 267.539062 500.933594 271.292969 C 500.859375 275.046875 500.6875 278.796875 500.414062 282.542969 C 500.140625 286.289062 499.769531 290.023438 499.300781 293.746094 C 498.828125 297.472656 498.257812 301.183594 497.59375 304.878906 C 496.925781 308.570312 496.160156 312.246094 495.296875 315.902344 C 494.4375 319.554688 493.476562 323.183594 492.421875 326.789062 C 491.367188 330.390625 490.21875 333.964844 488.976562 337.507812 C 487.730469 341.050781 486.394531 344.558594 484.964844 348.027344 C 483.535156 351.5 482.011719 354.929688 480.402344 358.324219 C 478.789062 361.714844 477.089844 365.058594 475.296875 368.359375 C 473.507812 371.660156 471.632812 374.914062 469.671875 378.113281 C 467.710938 381.316406 465.664062 384.460938 463.535156 387.554688 C 461.40625 390.648438 459.199219 393.683594 456.910156 396.65625 C 454.617188 399.632812 452.253906 402.546875 449.808594 405.398438 C 447.363281 408.246094 444.847656 411.03125 442.253906 413.746094 C 439.664062 416.464844 437 419.109375 434.269531 421.6875 C 431.539062 424.261719 428.738281 426.761719 425.875 429.191406 C 423.007812 431.617188 420.082031 433.96875 417.09375 436.238281 C 414.105469 438.511719 411.058594 440.703125 407.953125 442.8125 C 404.847656 444.921875 401.6875 446.949219 398.472656 448.894531 C 395.261719 450.835938 392 452.691406 388.6875 454.460938 C 385.375 456.234375 382.019531 457.914062 378.621094 459.503906 C 375.21875 461.097656 371.78125 462.597656 368.300781 464.007812 C 364.820312 465.417969 361.304688 466.734375 357.753906 467.957031 C 354.203125 469.179688 350.625 470.308594 347.015625 471.339844 C 343.40625 472.375 339.769531 473.3125 336.113281 474.152344 C 332.453125 474.992188 328.773438 475.734375 325.074219 476.382812 C 321.375 477.027344 317.664062 477.574219 313.933594 478.023438 C 310.207031 478.472656 306.46875 478.820312 302.722656 479.070312 C 298.976562 479.320312 295.226562 479.472656 291.472656 479.523438 C 287.71875 479.578125 283.964844 479.527344 280.214844 479.382812 C 276.460938 479.234375 272.714844 478.988281 268.976562 478.640625 C 265.238281 478.296875 261.511719 477.851562 257.796875 477.304688 C 254.082031 476.761719 250.382812 476.121094 246.703125 475.382812 C 243.023438 474.640625 239.363281 473.804688 235.726562 472.871094 L 288.554688 267.125 Z M 288.554688 54.703125 " fill-opacity="1" fill-rule="nonzero"/></g><path fill="#ff597c" d="M 235.726562 472.871094 C 231.953125 471.902344 228.210938 470.832031 224.5 469.65625 C 220.789062 468.484375 217.109375 467.207031 213.46875 465.832031 C 209.824219 464.457031 206.222656 462.980469 202.664062 461.40625 C 199.101562 459.832031 195.585938 458.160156 192.117188 456.390625 C 188.648438 454.625 185.226562 452.761719 181.863281 450.808594 C 178.496094 448.851562 175.183594 446.804688 171.929688 444.667969 C 168.675781 442.527344 165.480469 440.304688 162.347656 437.988281 C 159.21875 435.675781 156.152344 433.277344 153.152344 430.796875 C 150.152344 428.316406 147.222656 425.753906 144.363281 423.109375 C 141.503906 420.464844 138.71875 417.746094 136.007812 414.949219 C 133.296875 412.152344 130.667969 409.285156 128.117188 406.34375 C 125.5625 403.402344 123.09375 400.394531 120.707031 397.316406 C 118.320312 394.242188 116.019531 391.101562 113.808594 387.898438 C 111.59375 384.695312 109.46875 381.433594 107.433594 378.113281 C 105.398438 374.792969 103.457031 371.421875 101.609375 367.992188 C 99.761719 364.566406 98.007812 361.089844 96.347656 357.566406 C 94.691406 354.046875 93.132812 350.480469 91.667969 346.871094 C 90.207031 343.261719 88.847656 339.613281 87.585938 335.929688 C 86.324219 332.246094 85.164062 328.53125 84.109375 324.785156 C 83.050781 321.035156 82.097656 317.261719 81.246094 313.460938 C 80.398438 309.660156 79.652344 305.839844 79.015625 302 C 78.375 298.160156 77.84375 294.304688 77.414062 290.433594 C 76.988281 286.5625 76.667969 282.683594 76.453125 278.796875 C 76.238281 274.910156 76.132812 271.019531 76.132812 267.125 C 76.132812 263.230469 76.238281 259.339844 76.453125 255.453125 C 76.667969 251.5625 76.988281 247.683594 77.414062 243.8125 C 77.84375 239.945312 78.375 236.089844 79.015625 232.246094 C 79.652344 228.40625 80.398438 224.585938 81.246094 220.785156 C 82.097656 216.984375 83.050781 213.210938 84.109375 209.464844 C 85.164062 205.714844 86.324219 202 87.585938 198.316406 C 88.847656 194.632812 90.207031 190.988281 91.667969 187.378906 C 93.132812 183.769531 94.691406 180.203125 96.347656 176.679688 L 288.554688 267.125 Z M 235.726562 472.871094 " fill-opacity="1" fill-rule="nonzero"/><path fill="#ff87b9" d="M 96.347656 176.679688 C 98.71875 171.644531 101.28125 166.710938 104.039062 161.878906 C 106.792969 157.046875 109.738281 152.328125 112.863281 147.726562 C 115.992188 143.125 119.292969 138.652344 122.773438 134.308594 C 126.253906 129.96875 129.894531 125.769531 133.703125 121.710938 C 137.515625 117.65625 141.476562 113.753906 145.589844 110.011719 C 149.707031 106.265625 153.960938 102.6875 158.359375 99.277344 C 162.753906 95.867188 167.277344 92.636719 171.929688 89.582031 C 176.578125 86.527344 181.34375 83.660156 186.21875 80.976562 L 288.554688 267.125 Z M 96.347656 176.679688 " fill-opacity="1" fill-rule="nonzero"/><path fill="#ffb3e6" d="M 186.21875 80.976562 C 194.023438 76.6875 202.070312 72.902344 210.351562 69.621094 C 218.632812 66.34375 227.089844 63.59375 235.714844 61.378906 C 244.34375 59.164062 253.078125 57.496094 261.914062 56.378906 C 270.75 55.261719 279.625 54.703125 288.53125 54.703125 L 288.554688 267.125 Z M 186.21875 80.976562 " fill-opacity="1" fill-rule="nonzero"/><g fill="#ffffff" fill-opacity="1"><g transform="translate(506.529039, 292.201372)"><g><path d="M 1.527344 0.0625 L 4.253906 -0.0351562 C 4.21875 -0.246094 4.203125 -0.6875 4.175781 -1.28125 C 4.148438 -1.871094 4.121094 -2.59375 4.113281 -3.40625 C 4.582031 -3.363281 5.074219 -3.34375 5.5 -3.34375 C 7.589844 -3.34375 9.257812 -3.671875 10.398438 -4.40625 C 11.527344 -5.136719 12.136719 -6.257812 12.101562 -7.875 C 12.074219 -9.179688 11.722656 -10.125 11.121094 -10.804688 C 10.523438 -11.476562 9.691406 -11.871094 8.722656 -12.109375 C 7.75 -12.347656 6.636719 -12.410156 5.5 -12.410156 C 5.015625 -12.410156 4.554688 -12.402344 4.121094 -12.375 C 3.265625 -12.324219 2.570312 -12.242188 2.074219 -12.179688 C 1.820312 -12.144531 1.632812 -12.121094 1.507812 -12.109375 L 1.527344 -12.085938 L 1.507812 -12.09375 L 1.519531 -5.050781 L 0.898438 -5.109375 L 0.875 -3.8125 L 1.519531 -3.734375 Z M 5.480469 -4.917969 C 4.90625 -4.917969 4.457031 -4.917969 4.078125 -4.941406 C 4.050781 -5.992188 4.035156 -7.078125 4.035156 -8.066406 C 4.023438 -8.554688 4.023438 -9.011719 4.015625 -9.445312 C 4.007812 -9.878906 4.007812 -10.25 4.007812 -10.574219 C 4.28125 -10.59375 4.574219 -10.601562 4.882812 -10.601562 C 5.621094 -10.601562 6.382812 -10.59375 7.0625 -10.476562 C 7.734375 -10.363281 8.324219 -10.140625 8.746094 -9.71875 C 9.171875 -9.296875 9.425781 -8.667969 9.417969 -7.742188 C 9.410156 -6.683594 8.898438 -5.976562 8.15625 -5.535156 C 7.40625 -5.09375 6.425781 -4.917969 5.480469 -4.917969 Z M 5.480469 -4.917969 "/></g></g></g><g fill="#ffffff" fill-opacity="1"><g transform="translate(518.731721, 292.201372)"><g><path d="M 3.214844 0.246094 C 3.46875 0.246094 3.644531 0.175781 3.761719 0.0703125 C 3.867188 -0.0351562 3.929688 -0.175781 3.953125 -0.308594 C 4.035156 -0.980469 4.203125 -1.96875 4.457031 -3 C 4.703125 -4.023438 5.058594 -5.09375 5.542969 -5.90625 C 6.027344 -6.707031 6.648438 -7.257812 7.421875 -7.257812 C 7.785156 -7.257812 7.980469 -7.113281 8.09375 -6.910156 C 8.199219 -6.699219 8.226562 -6.433594 8.234375 -6.179688 C 8.246094 -5.921875 8.414062 -5.710938 8.652344 -5.578125 C 8.890625 -5.445312 9.199219 -5.382812 9.507812 -5.445312 C 9.78125 -5.492188 10.070312 -5.605469 10.292969 -5.851562 C 10.511719 -6.089844 10.671875 -6.453125 10.671875 -7.007812 C 10.671875 -7.890625 10.425781 -8.492188 9.992188 -8.871094 C 9.558594 -9.25 8.933594 -9.402344 8.191406 -9.402344 C 7.210938 -9.390625 6.453125 -9.011719 5.851562 -8.449219 C 5.242188 -7.882812 4.8125 -7.132812 4.492188 -6.375 C 4.167969 -5.613281 3.964844 -4.835938 3.832031 -4.261719 C 3.832031 -4.324219 3.832031 -4.441406 3.839844 -4.617188 C 3.839844 -4.792969 3.839844 -5.003906 3.847656 -5.261719 C 3.847656 -5.507812 3.847656 -5.78125 3.859375 -6.082031 C 3.867188 -6.382812 3.867188 -6.683594 3.875 -6.992188 C 3.882812 -7.707031 3.902344 -8.492188 3.917969 -9.367188 L 1.289062 -9.152344 L 1.289062 -0.078125 C 1.808594 -0.0898438 2.058594 0 2.304688 0.078125 C 2.542969 0.160156 2.753906 0.246094 3.214844 0.246094 Z M 3.214844 0.246094 "/></g></g></g><g fill="#ffffff" fill-opacity="1"><g transform="translate(529.460979, 292.201372)"><g><path d="M 5.417969 0.257812 C 5.949219 0.257812 6.621094 0.175781 7.292969 -0.0195312 C 7.953125 -0.210938 8.589844 -0.503906 9.039062 -0.953125 C 9.1875 -1.101562 9.332031 -1.246094 9.410156 -1.414062 C 9.488281 -1.578125 9.523438 -1.757812 9.488281 -2.03125 C 9.460938 -2.109375 9.410156 -2.171875 9.347656 -2.199219 C 9.214844 -2.257812 9.039062 -2.242188 8.84375 -2.1875 L 8.5625 -2.109375 C 8.351562 -2.039062 8.148438 -1.960938 7.960938 -1.863281 C 7.769531 -1.765625 7.554688 -1.675781 7.335938 -1.597656 C 6.886719 -1.429688 6.363281 -1.296875 5.597656 -1.269531 C 5.164062 -1.246094 4.722656 -1.394531 4.34375 -1.675781 C 3.964844 -1.960938 3.644531 -2.375 3.460938 -2.894531 C 5.816406 -2.9375 7.457031 -3.433594 8.519531 -4.140625 C 9.570312 -4.847656 10.027344 -5.78125 10.019531 -6.726562 C 10.011719 -7.539062 9.648438 -8.113281 9.128906 -8.507812 C 8.605469 -8.90625 7.925781 -9.136719 7.292969 -9.257812 C 6.65625 -9.382812 6.054688 -9.410156 5.703125 -9.410156 C 4.429688 -9.410156 3.195312 -9.074219 2.25 -8.269531 C 1.296875 -7.46875 0.660156 -6.207031 0.589844 -4.34375 C 0.53125 -2.9375 0.9375 -1.800781 1.757812 -0.996094 C 2.570312 -0.195312 3.804688 0.257812 5.417969 0.257812 Z M 3.25 -4.105469 L 3.25 -4.113281 C 3.25 -5.304688 3.617188 -6.136719 4.148438 -6.664062 C 4.679688 -7.195312 5.375 -7.433594 6.019531 -7.441406 C 6.257812 -7.449219 6.65625 -7.398438 7 -7.230469 C 7.34375 -7.0625 7.636719 -6.777344 7.660156 -6.320312 C 7.695312 -5.640625 7.34375 -5.164062 6.824219 -4.847656 C 6.292969 -4.519531 5.585938 -4.335938 4.925781 -4.238281 C 4.253906 -4.132812 3.628906 -4.105469 3.25 -4.105469 Z M 3.25 -4.105469 "/></g></g></g><g fill="#ffffff" fill-opacity="1"><g transform="translate(540.084478, 292.201372)"><g><path d="M 4.953125 0.273438 C 5.738281 0.273438 6.539062 0.210938 7.273438 0.0429688 C 8.007812 -0.125 8.652344 -0.378906 9.117188 -0.792969 C 9.578125 -1.210938 9.859375 -1.757812 9.859375 -2.488281 C 9.859375 -2.84375 9.796875 -3.152344 9.683594 -3.40625 C 9.4375 -3.917969 9.011719 -4.261719 8.449219 -4.492188 C 7.882812 -4.722656 7.210938 -4.871094 6.488281 -4.976562 C 6.125 -5.03125 5.753906 -5.085938 5.394531 -5.144531 C 4.644531 -5.21875 4.15625 -5.375 3.859375 -5.585938 C 3.558594 -5.789062 3.441406 -6.039062 3.441406 -6.277344 C 3.441406 -6.550781 3.617188 -6.867188 3.964844 -7.113281 C 4.308594 -7.363281 4.800781 -7.546875 5.4375 -7.546875 C 6.003906 -7.546875 6.445312 -7.457031 6.796875 -7.28125 C 7.148438 -7.105469 7.421875 -6.851562 7.671875 -6.523438 L 9.832031 -7.097656 C 9.699219 -8.128906 9.214844 -8.757812 8.5 -9.117188 C 7.785156 -9.472656 6.851562 -9.570312 5.824219 -9.570312 C 4.476562 -9.570312 3.222656 -9.214844 2.3125 -8.632812 C 1.394531 -8.050781 0.820312 -7.257812 0.820312 -6.375 C 0.820312 -5.675781 1.101562 -5.128906 1.625 -4.703125 C 2.144531 -4.273438 2.886719 -3.980469 3.8125 -3.8125 C 4.335938 -3.714844 4.8125 -3.617188 5.242188 -3.539062 C 5.675781 -3.460938 6.046875 -3.363281 6.355469 -3.265625 C 6.980469 -3.0625 7.351562 -2.808594 7.351562 -2.382812 C 7.351562 -1.933594 7.0625 -1.632812 6.621094 -1.457031 C 6.179688 -1.269531 5.578125 -1.191406 4.988281 -1.191406 C 4.105469 -1.191406 3.453125 -1.296875 2.902344 -1.492188 C 2.355469 -1.6875 1.933594 -1.96875 1.507812 -2.320312 C 1.324219 -2.382812 1.058594 -2.296875 0.882812 -2.152344 C 0.699219 -2.011719 0.574219 -1.800781 0.652344 -1.589844 C 0.972656 -0.875 1.578125 -0.40625 2.339844 -0.125 C 3.097656 0.167969 4.007812 0.273438 4.953125 0.273438 Z M 4.953125 0.273438 "/></g></g></g><g fill="#ffffff" fill-opacity="1"><g transform="translate(550.575625, 292.201372)"><g><path d="M 10.132812 0.246094 C 10.355469 0.246094 10.539062 0.210938 10.691406 0.148438 C 10.980469 0.0273438 11.15625 -0.132812 11.238281 -0.273438 C 11.273438 -0.335938 11.289062 -0.371094 11.296875 -0.378906 C 11.261719 -0.421875 11.21875 -0.566406 11.15625 -0.820312 C 11.09375 -1.066406 11.035156 -1.449219 10.972656 -1.96875 C 10.847656 -3 10.742188 -4.609375 10.769531 -6.964844 C 10.671875 -6.980469 10.574219 -7 10.46875 -7.027344 L 10.175781 -7.078125 C 10.0625 -7.097656 9.949219 -7.113281 9.832031 -7.140625 L 10.222656 -7.777344 C 9.699219 -8.210938 9.136719 -8.625 8.4375 -8.925781 C 7.734375 -9.222656 6.902344 -9.410156 5.84375 -9.410156 C 4.996094 -9.410156 4.148438 -9.25 3.378906 -8.898438 C 2.613281 -8.542969 1.941406 -8.007812 1.449219 -7.238281 C 0.945312 -6.46875 0.625 -5.480469 0.582031 -4.246094 C 0.519531 -2.949219 0.820312 -1.828125 1.457031 -1.03125 C 2.09375 -0.238281 3.046875 0.238281 4.308594 0.238281 C 5.683594 0.238281 6.59375 -0.238281 7.210938 -0.9375 C 7.828125 -1.632812 8.15625 -2.535156 8.375 -3.40625 C 8.375 -2.390625 8.375 -1.632812 8.527344 -0.882812 C 8.632812 -0.460938 8.84375 -0.175781 9.128906 0 C 9.410156 0.175781 9.753906 0.246094 10.132812 0.246094 Z M 5.003906 -1.472656 C 4.519531 -1.472656 4.085938 -1.710938 3.769531 -2.152344 C 3.441406 -2.59375 3.238281 -3.214844 3.238281 -4.015625 C 3.238281 -5.242188 3.644531 -6.109375 4.210938 -6.65625 C 4.777344 -7.203125 5.515625 -7.433594 6.1875 -7.433594 C 6.972656 -7.40625 7.660156 -6.964844 8.226562 -6.398438 C 8.078125 -5.65625 7.898438 -4.863281 7.652344 -4.132812 C 7.40625 -3.398438 7.089844 -2.746094 6.664062 -2.257812 C 6.242188 -1.773438 5.703125 -1.472656 5.003906 -1.472656 Z M 5.003906 -1.472656 "/></g></g></g><g fill="#ffffff" fill-opacity="1"><g transform="translate(562.707944, 292.201372)"><g><path d="M 2.902344 0.246094 C 3.160156 0.246094 3.398438 0.160156 3.582031 0.0273438 C 3.761719 -0.105469 3.882812 -0.265625 3.945312 -0.414062 C 3.917969 -0.636719 3.910156 -1.148438 3.910156 -1.84375 L 3.910156 -3.011719 C 3.910156 -3.867188 3.917969 -4.835938 3.929688 -5.859375 C 3.9375 -6.375 3.9375 -6.886719 3.945312 -7.398438 C 3.972656 -9.1875 4 -11.175781 4.035156 -13.355469 L 3.8125 -13.320312 C 3.46875 -13.285156 2.886719 -13.242188 2.304688 -13.207031 C 1.722656 -13.171875 1.128906 -13.144531 0.8125 -13.144531 L 0.757812 -11.871094 L 1.472656 -11.898438 L 1.234375 -1.695312 C 1.199219 -1.023438 1.253906 -0.539062 1.5 -0.21875 C 1.738281 0.0976562 2.171875 0.246094 2.902344 0.246094 Z M 2.902344 0.246094 "/></g></g></g><g fill="#ffffff" fill-opacity="1"><g transform="translate(567.904989, 292.201372)"><g><path d="M 5.417969 0.257812 C 5.949219 0.257812 6.621094 0.175781 7.292969 -0.0195312 C 7.953125 -0.210938 8.589844 -0.503906 9.039062 -0.953125 C 9.1875 -1.101562 9.332031 -1.246094 9.410156 -1.414062 C 9.488281 -1.578125 9.523438 -1.757812 9.488281 -2.03125 C 9.460938 -2.109375 9.410156 -2.171875 9.347656 -2.199219 C 9.214844 -2.257812 9.039062 -2.242188 8.84375 -2.1875 L 8.5625 -2.109375 C 8.351562 -2.039062 8.148438 -1.960938 7.960938 -1.863281 C 7.769531 -1.765625 7.554688 -1.675781 7.335938 -1.597656 C 6.886719 -1.429688 6.363281 -1.296875 5.597656 -1.269531 C 5.164062 -1.246094 4.722656 -1.394531 4.34375 -1.675781 C 3.964844 -1.960938 3.644531 -2.375 3.460938 -2.894531 C 5.816406 -2.9375 7.457031 -3.433594 8.519531 -4.140625 C 9.570312 -4.847656 10.027344 -5.78125 10.019531 -6.726562 C 10.011719 -7.539062 9.648438 -8.113281 9.128906 -8.507812 C 8.605469 -8.90625 7.925781 -9.136719 7.292969 -9.257812 C 6.65625 -9.382812 6.054688 -9.410156 5.703125 -9.410156 C 4.429688 -9.410156 3.195312 -9.074219 2.25 -8.269531 C 1.296875 -7.46875 0.660156 -6.207031 0.589844 -4.34375 C 0.53125 -2.9375 0.9375 -1.800781 1.757812 -0.996094 C 2.570312 -0.195312 3.804688 0.257812 5.417969 0.257812 Z M 3.25 -4.105469 L 3.25 -4.113281 C 3.25 -5.304688 3.617188 -6.136719 4.148438 -6.664062 C 4.679688 -7.195312 5.375 -7.433594 6.019531 -7.441406 C 6.257812 -7.449219 6.65625 -7.398438 7 -7.230469 C 7.34375 -7.0625 7.636719 -6.777344 7.660156 -6.320312 C 7.695312 -5.640625 7.34375 -5.164062 6.824219 -4.847656 C 6.292969 -4.519531 5.585938 -4.335938 4.925781 -4.238281 C 4.253906 -4.132812 3.628906 -4.105469 3.25 -4.105469 Z M 3.25 -4.105469 "/></g></g></g><g fill="#ffffff" fill-opacity="1"><g transform="translate(523.516266, 315.285101)"><g><path d="M 5.058594 0.21875 C 5.878906 0.21875 6.734375 0.0703125 7.496094 -0.230469 C 8.253906 -0.53125 8.933594 -0.980469 9.425781 -1.578125 C 9.921875 -2.171875 10.238281 -2.921875 10.273438 -3.8125 C 10.308594 -4.933594 10.019531 -5.738281 9.523438 -6.3125 C 9.03125 -6.886719 8.332031 -7.230469 7.566406 -7.441406 C 6.789062 -7.652344 5.941406 -7.714844 5.15625 -7.714844 C 4.371094 -7.714844 3.628906 -7.660156 3.089844 -7.625 L 3.320312 -10.34375 C 3.523438 -10.34375 3.796875 -10.34375 4.140625 -10.335938 C 4.835938 -10.328125 5.675781 -10.308594 6.558594 -10.285156 L 7.792969 -10.257812 C 8.5625 -10.238281 9.171875 -10.214844 9.382812 -10.203125 L 9.4375 -12.324219 L 1.820312 -12.332031 C 1.640625 -12.332031 1.5 -12.253906 1.394531 -12.09375 C 1.175781 -11.773438 1.042969 -11.203125 0.980469 -10.40625 C 0.910156 -9.613281 0.882812 -8.652344 0.855469 -7.566406 C 0.847656 -7.015625 0.828125 -6.453125 0.804688 -5.878906 C 1.113281 -5.886719 1.449219 -5.90625 1.808594 -5.933594 C 2.171875 -5.949219 2.535156 -5.96875 2.914062 -5.976562 C 3.664062 -6.003906 4.441406 -5.992188 5.128906 -5.898438 C 5.816406 -5.800781 6.425781 -5.621094 6.867188 -5.277344 C 7.308594 -4.933594 7.574219 -4.457031 7.574219 -3.75 C 7.574219 -3.070312 7.265625 -2.570312 6.789062 -2.25 C 6.3125 -1.925781 5.675781 -1.765625 5.066406 -1.765625 C 4.386719 -1.765625 3.820312 -1.941406 3.34375 -2.1875 C 2.867188 -2.425781 2.488281 -2.726562 2.179688 -2.976562 C 1.863281 -3.222656 1.632812 -3.40625 1.457031 -3.433594 C 0.890625 -3.496094 0.582031 -3.390625 0.421875 -3.1875 C 0.265625 -2.976562 0.246094 -2.683594 0.28125 -2.375 C 0.433594 -1.765625 0.890625 -1.113281 1.675781 -0.617188 C 2.453125 -0.125 3.574219 0.21875 5.058594 0.21875 Z M 5.058594 0.21875 "/></g></g></g><g fill="#ffffff" fill-opacity="1"><g transform="translate(534.536824, 315.285101)"><g><path d="M 6.894531 0.238281 C 7.625 0.238281 8.007812 0.0976562 8.199219 -0.175781 C 8.394531 -0.449219 8.394531 -0.855469 8.394531 -1.378906 L 8.386719 -2.824219 C 8.925781 -2.832031 9.375 -2.851562 9.753906 -2.859375 C 10.125 -2.867188 10.371094 -2.886719 10.488281 -2.902344 L 10.503906 -4.714844 C 10.011719 -4.679688 9.277344 -4.660156 8.367188 -4.632812 L 8.316406 -12.394531 L 8.289062 -12.375 C 8.066406 -12.332031 7.882812 -12.3125 7.734375 -12.324219 C 7.433594 -12.347656 7.167969 -12.417969 6.886719 -12.492188 C 6.734375 -12.527344 6.558594 -12.542969 6.347656 -12.542969 C 6.027344 -12.542969 5.824219 -12.480469 5.621094 -12.332031 C 5.417969 -12.179688 5.242188 -11.925781 4.996094 -11.546875 L 0.0898438 -4.660156 C -0.0546875 -4.457031 -0.175781 -4.191406 -0.175781 -3.972656 C -0.175781 -3.664062 -0.078125 -3.511719 0 -3.378906 C 0.0703125 -3.238281 0.125 -3.125 0.0546875 -2.878906 C 0.246094 -2.859375 0.546875 -2.84375 0.945312 -2.832031 C 1.738281 -2.808594 2.796875 -2.789062 4 -2.789062 L 5.800781 -2.789062 C 5.773438 -1.660156 5.746094 -0.769531 5.703125 -0.414062 C 5.746094 -0.265625 5.921875 -0.105469 6.144531 0.0195312 C 6.355469 0.140625 6.636719 0.238281 6.894531 0.238281 Z M 4.015625 -4.597656 C 3.40625 -4.597656 2.832031 -4.609375 2.277344 -4.617188 C 2.445312 -4.863281 2.664062 -5.171875 2.9375 -5.550781 L 3.8125 -6.796875 C 4.449219 -7.695312 5.171875 -8.6875 5.84375 -9.605469 C 5.84375 -9.277344 5.84375 -8.925781 5.84375 -8.535156 L 5.84375 -7.308594 C 5.84375 -6.453125 5.835938 -5.515625 5.824219 -4.597656 Z M 4.015625 -4.597656 "/></g></g></g><g fill="#ffffff" fill-opacity="1"><g transform="translate(545.689734, 315.285101)"><g><path d="M 4.253906 0.300781 C 4.34375 0.300781 4.441406 0.28125 4.539062 0.257812 C 4.730469 0.203125 4.90625 0.0976562 5.015625 -0.0898438 C 5.507812 -0.996094 6.117188 -2.082031 6.777344 -3.230469 L 8.816406 -6.761719 C 9.496094 -7.925781 10.152344 -9.054688 10.714844 -10.046875 C 11.273438 -11.023438 11.730469 -11.855469 12.039062 -12.445312 L 10.714844 -12.886719 C 10.1875 -12.003906 9.550781 -10.929688 8.871094 -9.773438 C 8.527344 -9.1875 8.183594 -8.597656 7.820312 -7.988281 C 7.457031 -7.378906 7.105469 -6.769531 6.761719 -6.179688 C 6.0625 -4.976562 5.402344 -3.839844 4.847656 -2.859375 C 4.28125 -1.878906 3.820312 -1.078125 3.539062 -0.574219 C 3.503906 -0.511719 3.488281 -0.441406 3.488281 -0.363281 C 3.488281 -0.273438 3.503906 -0.183594 3.546875 -0.105469 C 3.617188 0.0703125 3.785156 0.230469 4.035156 0.265625 C 4.085938 0.292969 4.15625 0.300781 4.253906 0.300781 Z M 3.671875 -6.011719 C 4.625 -6.011719 5.515625 -6.265625 6.171875 -6.816406 C 6.824219 -7.363281 7.230469 -8.210938 7.230469 -9.402344 C 7.230469 -10.363281 6.9375 -11.191406 6.410156 -11.785156 C 5.871094 -12.375 5.085938 -12.71875 4.097656 -12.71875 C 2.71875 -12.71875 1.792969 -12.289062 1.199219 -11.632812 C 0.609375 -10.980469 0.371094 -10.105469 0.378906 -9.234375 C 0.378906 -8.84375 0.476562 -8.429688 0.644531 -8.113281 C 0.8125 -7.792969 1.050781 -7.574219 1.339844 -7.539062 L 0.925781 -7.246094 C 1.5 -6.390625 2.445312 -6.011719 3.671875 -6.011719 Z M 3.671875 -7.449219 C 2.976562 -7.449219 2.5 -7.8125 2.257812 -8.175781 L 2.039062 -8.015625 C 2.109375 -8.304688 2.117188 -8.703125 2.109375 -9.152344 C 2.101562 -9.605469 2.179688 -10.125 2.453125 -10.539062 C 2.726562 -10.953125 3.195312 -11.246094 3.964844 -11.246094 C 4.308594 -11.246094 4.667969 -11.121094 4.953125 -10.820312 C 5.234375 -10.523438 5.4375 -10.0625 5.4375 -9.402344 C 5.4375 -8.6875 5.207031 -8.199219 4.871094 -7.890625 C 4.539062 -7.574219 4.085938 -7.449219 3.671875 -7.449219 Z M 11.535156 0.230469 C 12.492188 0.230469 13.382812 -0.0273438 14.035156 -0.574219 C 14.6875 -1.121094 15.09375 -1.96875 15.09375 -3.160156 C 15.09375 -4.121094 14.804688 -4.953125 14.273438 -5.542969 C 13.734375 -6.136719 12.949219 -6.480469 11.960938 -6.480469 C 10.582031 -6.480469 9.65625 -6.046875 9.066406 -5.394531 C 8.472656 -4.738281 8.234375 -3.867188 8.246094 -2.992188 C 8.246094 -2.59375 8.339844 -2.179688 8.507812 -1.863281 C 8.675781 -1.542969 8.925781 -1.324219 9.214844 -1.296875 L 8.792969 -0.996094 C 9.367188 -0.148438 10.308594 0.230469 11.535156 0.230469 Z M 11.535156 -1.210938 C 10.839844 -1.210938 10.363281 -1.570312 10.125 -1.933594 L 9.902344 -1.773438 C 9.976562 -2.066406 9.984375 -2.460938 9.976562 -2.914062 C 9.964844 -3.363281 10.046875 -3.882812 10.320312 -4.296875 C 10.59375 -4.714844 11.058594 -5.003906 11.828125 -5.003906 C 12.171875 -5.003906 12.535156 -4.882812 12.816406 -4.582031 C 13.097656 -4.28125 13.300781 -3.820312 13.300781 -3.160156 C 13.300781 -2.445312 13.074219 -1.960938 12.738281 -1.652344 C 12.402344 -1.332031 11.953125 -1.210938 11.535156 -1.210938 Z M 11.535156 -1.210938 "/></g></g></g><g fill="#ffffff" fill-opacity="1"><g transform="translate(6.028158, 371.674859)"><g><path d="M 8.828125 0.078125 C 9.1875 0.140625 9.558594 0.0625 9.832031 -0.167969 C 10.105469 -0.398438 10.285156 -0.777344 10.285156 -1.367188 C 10.285156 -1.578125 10.203125 -1.773438 10.089844 -1.925781 C 9.976562 -2.074219 9.832031 -2.171875 9.691406 -2.207031 C 9.234375 -2.3125 8.625 -2.355469 7.953125 -2.367188 C 7.28125 -2.375 6.550781 -2.339844 5.84375 -2.296875 C 5.136719 -2.25 4.457031 -2.179688 3.902344 -2.117188 C 3.902344 -2.9375 3.917969 -4 3.953125 -5.121094 C 3.964844 -5.675781 3.980469 -6.25 4 -6.832031 C 4.007812 -7.40625 4.023438 -7.972656 4.042969 -8.507812 C 4.078125 -9.78125 4.121094 -11.085938 4.175781 -12.417969 L 2.789062 -12.382812 L 2.796875 -12.410156 L 0.839844 -12.332031 L 0.839844 -11.050781 L 1.484375 -11.078125 L 1.449219 -1.792969 C 1.4375 -1.023438 1.449219 -0.566406 1.667969 -0.300781 C 1.878906 -0.0351562 2.320312 0.0429688 3.167969 0.0429688 C 3.214844 0.0351562 3.265625 0.0351562 3.308594 0.0273438 C 3.355469 0.0273438 3.390625 0.0195312 3.433594 0.0078125 C 3.785156 -0.0195312 4.359375 -0.0429688 5.003906 -0.0546875 C 5.640625 -0.0625 6.375 -0.0625 7.054688 -0.0429688 C 7.722656 -0.0273438 8.359375 0.0195312 8.828125 0.078125 Z M 8.828125 0.078125 "/></g></g></g><g fill="#ffffff" fill-opacity="1"><g transform="translate(16.75754, 371.674859)"><g><path d="M 3.820312 0.140625 L 4 -8.703125 C 4.007812 -8.898438 3.980469 -9.046875 3.917969 -9.144531 C 3.804688 -9.339844 3.628906 -9.402344 3.453125 -9.410156 L 3.222656 -9.4375 C 3.070312 -9.472656 3.054688 -9.65625 3.054688 -9.9375 L 3.054688 -10.195312 C 3.046875 -10.292969 3.046875 -10.371094 3.046875 -10.414062 C 3.046875 -10.53125 3.167969 -10.582031 3.335938 -10.628906 C 3.503906 -10.671875 3.699219 -10.714844 3.867188 -10.847656 C 4.035156 -10.980469 4.15625 -11.191406 4.15625 -11.554688 C 4.15625 -11.96875 4.007812 -12.242188 3.75 -12.417969 C 3.496094 -12.597656 3.125 -12.667969 2.675781 -12.667969 C 1.710938 -12.667969 1.15625 -12.367188 1.15625 -11.554688 C 1.15625 -11.28125 1.21875 -11.078125 1.339844 -10.953125 C 1.578125 -10.707031 1.898438 -10.636719 2.144531 -10.582031 C 2.257812 -10.558594 2.320312 -10.496094 2.320312 -10.414062 L 2.320312 -10.320312 C 2.320312 -10.273438 2.320312 -10.222656 2.332031 -10.175781 C 2.332031 -10.125 2.332031 -10.082031 2.332031 -10.035156 L 2.332031 -9.9375 C 2.332031 -9.808594 2.3125 -9.691406 2.285156 -9.59375 C 2.222656 -9.402344 2.09375 -9.402344 1.890625 -9.402344 C 1.792969 -9.390625 1.695312 -9.375 1.605469 -9.339844 C 1.429688 -9.269531 1.289062 -9.109375 1.289062 -8.722656 L 1.289062 -0.0429688 Z M 3.820312 0.140625 "/></g></g></g><g fill="#ffffff" fill-opacity="1"><g transform="translate(21.954584, 371.674859)"><g><path d="M 9.726562 4.351562 C 9.9375 4.351562 10.125 4.316406 10.273438 4.253906 C 10.574219 4.132812 10.761719 3.972656 10.847656 3.839844 C 10.894531 3.777344 10.910156 3.734375 10.910156 3.726562 C 10.902344 3.691406 10.902344 3.511719 10.894531 3.1875 L 10.867188 1.90625 C 10.855469 0.847656 10.839844 -0.582031 10.839844 -2.144531 L 10.839844 -4.554688 C 10.839844 -5.375 10.847656 -6.179688 10.855469 -6.964844 C 10.691406 -7.007812 10.523438 -7.0625 10.292969 -7.105469 L 9.929688 -7.183594 L 10.203125 -7.785156 C 9.683594 -8.21875 9.144531 -8.632812 8.464844 -8.925781 C 7.785156 -9.214844 6.945312 -9.410156 5.851562 -9.410156 C 5.003906 -9.410156 4.15625 -9.25 3.390625 -8.898438 C 2.613281 -8.542969 1.941406 -8.007812 1.449219 -7.238281 C 0.945312 -6.46875 0.625 -5.480469 0.582031 -4.246094 C 0.519531 -2.949219 0.828125 -1.828125 1.464844 -1.03125 C 2.09375 -0.238281 3.046875 0.238281 4.308594 0.238281 C 5.226562 0.238281 5.914062 0.0703125 6.453125 -0.246094 C 6.980469 -0.554688 7.363281 -0.996094 7.660156 -1.535156 C 7.960938 -2.074219 8.164062 -2.710938 8.375 -3.40625 C 8.375 -2.992188 8.367188 -2.234375 8.359375 -1.359375 C 8.351562 -0.476562 8.332031 0.496094 8.332031 1.359375 C 8.332031 2.222656 8.339844 2.964844 8.367188 3.328125 C 8.402344 3.714844 8.527344 3.972656 8.746094 4.132812 C 8.960938 4.289062 9.277344 4.351562 9.726562 4.351562 Z M 5.015625 -1.472656 C 4.527344 -1.472656 4.097656 -1.703125 3.777344 -2.136719 C 3.460938 -2.570312 3.257812 -3.195312 3.257812 -4 C 3.257812 -5.199219 3.65625 -6.054688 4.21875 -6.621094 C 4.785156 -7.175781 5.515625 -7.433594 6.1875 -7.433594 C 6.964844 -7.433594 7.660156 -6.992188 8.226562 -6.425781 C 8.085938 -5.683594 7.910156 -4.882812 7.660156 -4.148438 C 7.414062 -3.417969 7.097656 -2.746094 6.671875 -2.257812 C 6.25 -1.773438 5.710938 -1.472656 5.015625 -1.472656 Z M 5.015625 -1.472656 "/></g></g></g><g fill="#ffffff" fill-opacity="1"><g transform="translate(34.033962, 371.674859)"><g><path d="M 4.589844 0.246094 C 5.570312 0.246094 6.347656 -0.113281 6.972656 -0.671875 C 7.601562 -1.226562 8.058594 -1.960938 8.394531 -2.710938 C 8.730469 -3.453125 8.941406 -4.210938 9.074219 -4.785156 C 9.074219 -4.335938 9.082031 -3.601562 9.09375 -2.894531 C 9.101562 -2.535156 9.101562 -2.199219 9.109375 -1.890625 C 9.109375 -1.578125 9.117188 -1.339844 9.128906 -1.183594 C 9.1875 -0.273438 9.675781 0.246094 10.839844 0.246094 C 11.167969 0.246094 11.429688 0.105469 11.609375 -0.0625 C 11.785156 -0.230469 11.871094 -0.40625 11.871094 -0.503906 C 11.828125 -1.234375 11.800781 -2.128906 11.773438 -3.070312 C 11.738281 -4.015625 11.722656 -4.996094 11.714844 -5.886719 C 11.695312 -6.9375 11.6875 -8.007812 11.6875 -9.09375 C 11.167969 -9.082031 10.917969 -9.164062 10.679688 -9.242188 C 10.433594 -9.320312 10.214844 -9.410156 9.761719 -9.410156 C 9.507812 -9.410156 9.332031 -9.339844 9.222656 -9.234375 C 9.109375 -9.128906 9.046875 -8.984375 9.039062 -8.84375 C 8.96875 -8.351562 8.84375 -7.660156 8.667969 -6.902344 C 8.484375 -6.144531 8.246094 -5.324219 7.9375 -4.554688 C 7.625 -3.785156 7.265625 -3.089844 6.824219 -2.585938 C 6.382812 -2.082031 5.878906 -1.757812 5.289062 -1.757812 C 4.609375 -1.757812 4.148438 -2.09375 3.902344 -3.011719 C 3.65625 -3.929688 3.601562 -5.4375 3.742188 -7.769531 C 3.777344 -8.304688 3.875 -8.792969 3.972656 -9.117188 L 1.507812 -9.339844 C 1.414062 -9.164062 1.304688 -8.855469 1.226562 -8.484375 C 1.148438 -8.113281 1.085938 -7.671875 1.050781 -7.246094 C 0.875 -4.765625 0.972656 -2.894531 1.5 -1.640625 C 2.03125 -0.386719 3 0.246094 4.589844 0.246094 Z M 4.589844 0.246094 "/></g></g></g><g fill="#ffffff" fill-opacity="1"><g transform="translate(47.092749, 371.674859)"><g><path d="M 3.820312 0.140625 L 4 -8.703125 C 4.007812 -8.898438 3.980469 -9.046875 3.917969 -9.144531 C 3.804688 -9.339844 3.628906 -9.402344 3.453125 -9.410156 L 3.222656 -9.4375 C 3.070312 -9.472656 3.054688 -9.65625 3.054688 -9.9375 L 3.054688 -10.195312 C 3.046875 -10.292969 3.046875 -10.371094 3.046875 -10.414062 C 3.046875 -10.53125 3.167969 -10.582031 3.335938 -10.628906 C 3.503906 -10.671875 3.699219 -10.714844 3.867188 -10.847656 C 4.035156 -10.980469 4.15625 -11.191406 4.15625 -11.554688 C 4.15625 -11.96875 4.007812 -12.242188 3.75 -12.417969 C 3.496094 -12.597656 3.125 -12.667969 2.675781 -12.667969 C 1.710938 -12.667969 1.15625 -12.367188 1.15625 -11.554688 C 1.15625 -11.28125 1.21875 -11.078125 1.339844 -10.953125 C 1.578125 -10.707031 1.898438 -10.636719 2.144531 -10.582031 C 2.257812 -10.558594 2.320312 -10.496094 2.320312 -10.414062 L 2.320312 -10.320312 C 2.320312 -10.273438 2.320312 -10.222656 2.332031 -10.175781 C 2.332031 -10.125 2.332031 -10.082031 2.332031 -10.035156 L 2.332031 -9.9375 C 2.332031 -9.808594 2.3125 -9.691406 2.285156 -9.59375 C 2.222656 -9.402344 2.09375 -9.402344 1.890625 -9.402344 C 1.792969 -9.390625 1.695312 -9.375 1.605469 -9.339844 C 1.429688 -9.269531 1.289062 -9.109375 1.289062 -8.722656 L 1.289062 -0.0429688 Z M 3.820312 0.140625 "/></g></g></g><g fill="#ffffff" fill-opacity="1"><g transform="translate(52.289793, 371.674859)"><g><path d="M 10.132812 0.246094 C 10.355469 0.246094 10.539062 0.210938 10.691406 0.148438 C 10.980469 0.0273438 11.15625 -0.132812 11.238281 -0.273438 C 11.273438 -0.335938 11.289062 -0.371094 11.296875 -0.378906 C 11.132812 -0.875 11.023438 -1.828125 10.953125 -3.089844 C 10.875 -4.351562 10.839844 -5.921875 10.820312 -7.625 C 10.804688 -9.332031 10.804688 -11.203125 10.832031 -13.046875 C 10.59375 -13.019531 10.398438 -13.019531 10.230469 -13.046875 C 9.902344 -13.109375 9.648438 -13.207031 9.402344 -13.292969 C 9.277344 -13.335938 9.136719 -13.355469 8.984375 -13.355469 C 8.855469 -13.355469 8.746094 -13.335938 8.667969 -13.3125 C 8.492188 -13.242188 8.402344 -13.132812 8.351562 -13.003906 C 8.296875 -12.859375 8.296875 -12.835938 8.296875 -12.585938 L 8.296875 -12.09375 C 8.296875 -11.882812 8.296875 -11.632812 8.304688 -11.359375 L 8.304688 -10.488281 C 8.296875 -10.175781 8.296875 -9.867188 8.296875 -9.542969 C 8.289062 -9.214844 8.289062 -8.898438 8.28125 -8.589844 C 7.574219 -9.109375 6.707031 -9.410156 5.851562 -9.410156 C 5.003906 -9.410156 4.15625 -9.25 3.390625 -8.898438 C 2.613281 -8.542969 1.941406 -8.007812 1.449219 -7.238281 C 0.945312 -6.46875 0.625 -5.480469 0.582031 -4.246094 C 0.519531 -2.949219 0.828125 -1.828125 1.464844 -1.03125 C 2.09375 -0.238281 3.046875 0.238281 4.308594 0.238281 C 5.683594 0.238281 6.59375 -0.238281 7.210938 -0.9375 C 7.828125 -1.632812 8.15625 -2.535156 8.375 -3.40625 C 8.375 -2.390625 8.375 -1.632812 8.527344 -0.882812 C 8.632812 -0.460938 8.84375 -0.175781 9.128906 0 C 9.410156 0.175781 9.753906 0.246094 10.132812 0.246094 Z M 5.015625 -1.472656 C 4.527344 -1.472656 4.085938 -1.710938 3.769531 -2.152344 C 3.441406 -2.59375 3.238281 -3.214844 3.238281 -4.015625 C 3.238281 -5.242188 3.644531 -6.109375 4.210938 -6.65625 C 4.777344 -7.203125 5.515625 -7.433594 6.1875 -7.433594 C 7.035156 -7.40625 7.671875 -6.929688 8.15625 -6.222656 C 7.953125 -4.917969 7.6875 -3.726562 7.203125 -2.867188 C 6.71875 -2.011719 6.027344 -1.472656 5.015625 -1.472656 Z M 5.015625 -1.472656 "/></g></g></g><g fill="#ffffff" fill-opacity="1"><g transform="translate(64.510347, 371.674859)"><g><path d="M 3.820312 0.140625 L 4 -8.703125 C 4.007812 -8.898438 3.980469 -9.046875 3.917969 -9.144531 C 3.804688 -9.339844 3.628906 -9.402344 3.453125 -9.410156 L 3.222656 -9.4375 C 3.070312 -9.472656 3.054688 -9.65625 3.054688 -9.9375 L 3.054688 -10.195312 C 3.046875 -10.292969 3.046875 -10.371094 3.046875 -10.414062 C 3.046875 -10.53125 3.167969 -10.582031 3.335938 -10.628906 C 3.503906 -10.671875 3.699219 -10.714844 3.867188 -10.847656 C 4.035156 -10.980469 4.15625 -11.191406 4.15625 -11.554688 C 4.15625 -11.96875 4.007812 -12.242188 3.75 -12.417969 C 3.496094 -12.597656 3.125 -12.667969 2.675781 -12.667969 C 1.710938 -12.667969 1.15625 -12.367188 1.15625 -11.554688 C 1.15625 -11.28125 1.21875 -11.078125 1.339844 -10.953125 C 1.578125 -10.707031 1.898438 -10.636719 2.144531 -10.582031 C 2.257812 -10.558594 2.320312 -10.496094 2.320312 -10.414062 L 2.320312 -10.320312 C 2.320312 -10.273438 2.320312 -10.222656 2.332031 -10.175781 C 2.332031 -10.125 2.332031 -10.082031 2.332031 -10.035156 L 2.332031 -9.9375 C 2.332031 -9.808594 2.3125 -9.691406 2.285156 -9.59375 C 2.222656 -9.402344 2.09375 -9.402344 1.890625 -9.402344 C 1.792969 -9.390625 1.695312 -9.375 1.605469 -9.339844 C 1.429688 -9.269531 1.289062 -9.109375 1.289062 -8.722656 L 1.289062 -0.0429688 Z M 3.820312 0.140625 "/></g></g></g><g fill="#ffffff" fill-opacity="1"><g transform="translate(69.707391, 371.674859)"><g><path d="M 4.667969 0.292969 C 5.121094 0.335938 5.773438 0.273438 6.390625 0.105469 C 7.007812 -0.0625 7.601562 -0.316406 7.925781 -0.644531 C 8.253906 -0.972656 8.339844 -1.367188 7.945312 -1.820312 C 7.839844 -1.933594 7.734375 -2.003906 7.617188 -2.019531 C 7.386719 -2.058594 7.132812 -1.96875 6.875 -1.828125 C 6.742188 -1.757812 6.613281 -1.695312 6.480469 -1.632812 C 6.207031 -1.519531 5.933594 -1.429688 5.648438 -1.535156 C 4.941406 -1.597656 4.539062 -1.90625 4.296875 -2.410156 C 4.058594 -2.914062 3.988281 -3.601562 3.980469 -4.441406 C 3.980469 -4.519531 3.980469 -4.652344 3.988281 -4.855469 C 4 -5.242188 4.023438 -5.808594 4.070312 -6.496094 L 4.121094 -7.574219 L 6.53125 -7.601562 C 6.71875 -7.601562 6.921875 -7.679688 7.070312 -7.804688 C 7.21875 -7.925781 7.328125 -8.09375 7.328125 -8.304688 C 7.328125 -8.84375 7.007812 -9.1875 6.691406 -9.179688 L 4.210938 -9.101562 L 4.289062 -10.496094 C 4.335938 -11.378906 4.386719 -12.109375 4.429688 -12.808594 L 1.738281 -12.753906 C 1.722656 -12.410156 1.703125 -12.03125 1.675781 -11.625 C 1.660156 -11.28125 1.640625 -10.882812 1.617188 -10.441406 C 1.589844 -9.992188 1.570312 -9.523438 1.542969 -9.019531 L 0.328125 -8.984375 L 0.371094 -7.53125 L 1.472656 -7.539062 C 1.414062 -6.347656 1.386719 -5.21875 1.378906 -4.414062 C 1.367188 -2.976562 1.542969 -1.871094 2.046875 -1.078125 C 2.550781 -0.28125 3.371094 0.183594 4.667969 0.292969 Z M 4.667969 0.292969 "/></g></g></g><g fill="#ffffff" fill-opacity="1"><g transform="translate(78.301485, 371.674859)"><g><path d="M 1.949219 3.160156 C 2.417969 2.992188 3.027344 2.683594 3.671875 2.285156 C 4.316406 1.890625 5.023438 1.402344 5.667969 0.882812 C 6.3125 0.363281 6.921875 -0.183594 7.386719 -0.707031 C 8.898438 -2.402344 9.894531 -4.253906 10.0625 -6.277344 C 10.214844 -7.398438 10.132812 -8.164062 9.902344 -8.660156 C 9.675781 -9.144531 9.285156 -9.347656 8.890625 -9.347656 C 8.632812 -9.347656 8.402344 -9.339844 8.210938 -9.3125 C 7.8125 -9.257812 7.53125 -9.199219 7.28125 -9.101562 C 7.378906 -8.925781 7.519531 -8.394531 7.609375 -7.714844 C 7.695312 -7.035156 7.722656 -6.1875 7.609375 -5.347656 C 7.539062 -4.8125 7.433594 -4.273438 7.257812 -3.75 C 7.070312 -3.230469 6.816406 -2.726562 6.433594 -2.296875 C 6.214844 -2.019531 5.96875 -1.765625 5.695312 -1.492188 C 5.515625 -2.082031 5.242188 -2.914062 4.90625 -3.832031 C 4.574219 -4.75 4.167969 -5.765625 3.75 -6.726562 C 3.328125 -7.6875 2.894531 -8.625 2.472656 -9.375 L -0.210938 -8.828125 C 0.238281 -8.078125 0.792969 -7.0625 1.359375 -5.976562 C 1.914062 -4.882812 2.488281 -3.726562 2.976562 -2.675781 C 3.460938 -1.617188 3.859375 -0.660156 4.070312 -0.0195312 C 3.726562 0.273438 3.378906 0.546875 3.054688 0.804688 C 2.390625 1.324219 1.84375 1.722656 1.492188 1.96875 C 1.304688 2.101562 1.191406 2.179688 1.148438 2.207031 C 1.066406 2.425781 1.078125 2.59375 1.140625 2.726562 C 1.199219 2.859375 1.316406 2.9375 1.429688 3.011719 C 1.570312 3.089844 1.746094 3.132812 1.949219 3.160156 Z M 1.949219 3.160156 "/></g></g></g><g fill="#ffffff" fill-opacity="1"><g transform="translate(28.570232, 396.602524)"><g><path d="M 2.773438 0.0976562 C 3.882812 0.105469 5.179688 0.0976562 6.398438 0.078125 C 7.617188 0.0625 8.773438 0.0195312 9.621094 -0.0273438 C 10.046875 -0.105469 10.300781 -0.371094 10.40625 -0.671875 C 10.511719 -0.972656 10.488281 -1.324219 10.355469 -1.589844 C 10.214844 -1.855469 9.964844 -2.03125 9.65625 -1.996094 C 8.675781 -1.898438 7.539062 -1.855469 6.347656 -1.835938 C 5.15625 -1.820312 3.9375 -1.808594 2.832031 -1.808594 C 3.9375 -2.417969 5.085938 -3.117188 6.117188 -3.859375 C 7.140625 -4.597656 8.066406 -5.394531 8.730469 -6.207031 C 9.390625 -7.015625 9.796875 -7.847656 9.796875 -8.6875 C 9.796875 -10.070312 9.277344 -11.050781 8.402344 -11.6875 C 7.519531 -12.324219 6.285156 -12.613281 4.863281 -12.613281 C 3.699219 -12.613281 2.78125 -12.4375 2.109375 -12.207031 C 1.4375 -11.976562 0.996094 -11.703125 0.777344 -11.535156 L 1.800781 -10.054688 C 1.855469 -10.082031 1.949219 -10.140625 2.101562 -10.230469 C 2.25 -10.320312 2.4375 -10.40625 2.664062 -10.503906 C 3.125 -10.691406 3.761719 -10.867188 4.511719 -10.867188 C 6.109375 -10.867188 6.9375 -10.230469 6.9375 -8.617188 C 6.9375 -8.085938 6.613281 -7.449219 6.089844 -6.777344 C 5.5625 -6.109375 4.855469 -5.402344 4.105469 -4.730469 C 3.355469 -4.058594 2.558594 -3.433594 1.863281 -2.914062 C 1.164062 -2.390625 0.582031 -1.976562 0.230469 -1.757812 C 0.0078125 -1.625 -0.140625 -1.421875 -0.140625 -1.175781 C -0.140625 -0.820312 -0.0195312 -0.660156 0.0898438 -0.519531 C 0.195312 -0.378906 0.273438 -0.257812 0.195312 0 C 0.714844 0.0429688 1.660156 0.0898438 2.773438 0.0976562 Z M 2.773438 0.0976562 "/></g></g></g><g fill="#ffffff" fill-opacity="1"><g transform="translate(39.511377, 396.602524)"><g><path d="M 5.410156 0.21875 C 6.753906 0.21875 8.03125 -0.113281 8.996094 -0.75 C 9.949219 -1.386719 10.574219 -2.304688 10.636719 -3.496094 C 10.671875 -4.476562 10.328125 -5.207031 9.78125 -5.773438 C 9.234375 -6.335938 8.464844 -6.742188 7.660156 -7.0625 C 8.367188 -7.378906 8.855469 -7.8125 9.171875 -8.296875 C 9.480469 -8.78125 9.621094 -9.304688 9.621094 -9.796875 C 9.621094 -10.644531 9.171875 -11.351562 8.429688 -11.847656 C 7.6875 -12.332031 6.648438 -12.605469 5.445312 -12.605469 C 4.140625 -12.605469 3.046875 -12.289062 2.269531 -11.703125 C 1.492188 -11.121094 1.042969 -10.273438 1.042969 -9.222656 C 1.042969 -8.542969 1.289062 -8.015625 1.703125 -7.589844 C 2.117188 -7.167969 2.683594 -6.851562 3.308594 -6.578125 C 3.070312 -6.558594 2.851562 -6.496094 2.65625 -6.398438 C 2.128906 -6.195312 1.527344 -5.871094 1.050781 -5.347656 C 0.574219 -4.820312 0.230469 -4.097656 0.230469 -3.117188 C 0.230469 -2.101562 0.6875 -1.269531 1.570312 -0.6875 C 2.453125 -0.105469 3.75 0.21875 5.410156 0.21875 Z M 6.097656 -7.601562 C 5.367188 -7.820312 4.703125 -8.03125 4.21875 -8.28125 C 3.726562 -8.527344 3.417969 -8.828125 3.417969 -9.242188 C 3.417969 -9.710938 3.644531 -10.089844 4.007812 -10.363281 C 4.371094 -10.636719 4.890625 -10.785156 5.464844 -10.785156 C 6.136719 -10.785156 6.628906 -10.609375 6.964844 -10.34375 C 7.300781 -10.082031 7.457031 -9.71875 7.46875 -9.390625 C 7.46875 -8.941406 7.28125 -8.597656 7.007812 -8.316406 C 6.734375 -8.03125 6.390625 -7.804688 6.097656 -7.601562 Z M 5.296875 -1.710938 C 4.441406 -1.710938 3.820312 -1.914062 3.417969 -2.234375 C 3.011719 -2.542969 2.816406 -2.957031 2.824219 -3.40625 C 2.832031 -4.015625 3.152344 -4.546875 3.574219 -4.96875 C 4 -5.394531 4.539062 -5.71875 5.023438 -5.933594 C 5.789062 -5.65625 6.515625 -5.394531 7.042969 -5.023438 C 7.574219 -4.652344 7.917969 -4.183594 7.917969 -3.539062 C 7.917969 -3.082031 7.695312 -2.628906 7.257812 -2.285156 C 6.816406 -1.933594 6.152344 -1.710938 5.296875 -1.710938 Z M 5.296875 -1.710938 "/></g></g></g><g fill="#ffffff" fill-opacity="1"><g transform="translate(50.717228, 396.602524)"><g><path d="M 4.253906 0.300781 C 4.34375 0.300781 4.441406 0.28125 4.539062 0.257812 C 4.730469 0.203125 4.90625 0.0976562 5.015625 -0.0898438 C 5.507812 -0.996094 6.117188 -2.082031 6.777344 -3.230469 L 8.816406 -6.761719 C 9.496094 -7.925781 10.152344 -9.054688 10.714844 -10.046875 C 11.273438 -11.023438 11.730469 -11.855469 12.039062 -12.445312 L 10.714844 -12.886719 C 10.1875 -12.003906 9.550781 -10.929688 8.871094 -9.773438 C 8.527344 -9.1875 8.183594 -8.597656 7.820312 -7.988281 C 7.457031 -7.378906 7.105469 -6.769531 6.761719 -6.179688 C 6.0625 -4.976562 5.402344 -3.839844 4.847656 -2.859375 C 4.28125 -1.878906 3.820312 -1.078125 3.539062 -0.574219 C 3.503906 -0.511719 3.488281 -0.441406 3.488281 -0.363281 C 3.488281 -0.273438 3.503906 -0.183594 3.546875 -0.105469 C 3.617188 0.0703125 3.785156 0.230469 4.035156 0.265625 C 4.085938 0.292969 4.15625 0.300781 4.253906 0.300781 Z M 3.671875 -6.011719 C 4.625 -6.011719 5.515625 -6.265625 6.171875 -6.816406 C 6.824219 -7.363281 7.230469 -8.210938 7.230469 -9.402344 C 7.230469 -10.363281 6.9375 -11.191406 6.410156 -11.785156 C 5.871094 -12.375 5.085938 -12.71875 4.097656 -12.71875 C 2.71875 -12.71875 1.792969 -12.289062 1.199219 -11.632812 C 0.609375 -10.980469 0.371094 -10.105469 0.378906 -9.234375 C 0.378906 -8.84375 0.476562 -8.429688 0.644531 -8.113281 C 0.8125 -7.792969 1.050781 -7.574219 1.339844 -7.539062 L 0.925781 -7.246094 C 1.5 -6.390625 2.445312 -6.011719 3.671875 -6.011719 Z M 3.671875 -7.449219 C 2.976562 -7.449219 2.5 -7.8125 2.257812 -8.175781 L 2.039062 -8.015625 C 2.109375 -8.304688 2.117188 -8.703125 2.109375 -9.152344 C 2.101562 -9.605469 2.179688 -10.125 2.453125 -10.539062 C 2.726562 -10.953125 3.195312 -11.246094 3.964844 -11.246094 C 4.308594 -11.246094 4.667969 -11.121094 4.953125 -10.820312 C 5.234375 -10.523438 5.4375 -10.0625 5.4375 -9.402344 C 5.4375 -8.6875 5.207031 -8.199219 4.871094 -7.890625 C 4.539062 -7.574219 4.085938 -7.449219 3.671875 -7.449219 Z M 11.535156 0.230469 C 12.492188 0.230469 13.382812 -0.0273438 14.035156 -0.574219 C 14.6875 -1.121094 15.09375 -1.96875 15.09375 -3.160156 C 15.09375 -4.121094 14.804688 -4.953125 14.273438 -5.542969 C 13.734375 -6.136719 12.949219 -6.480469 11.960938 -6.480469 C 10.582031 -6.480469 9.65625 -6.046875 9.066406 -5.394531 C 8.472656 -4.738281 8.234375 -3.867188 8.246094 -2.992188 C 8.246094 -2.59375 8.339844 -2.179688 8.507812 -1.863281 C 8.675781 -1.542969 8.925781 -1.324219 9.214844 -1.296875 L 8.792969 -0.996094 C 9.367188 -0.148438 10.308594 0.230469 11.535156 0.230469 Z M 11.535156 -1.210938 C 10.839844 -1.210938 10.363281 -1.570312 10.125 -1.933594 L 9.902344 -1.773438 C 9.976562 -2.066406 9.984375 -2.460938 9.976562 -2.914062 C 9.964844 -3.363281 10.046875 -3.882812 10.320312 -4.296875 C 10.59375 -4.714844 11.058594 -5.003906 11.828125 -5.003906 C 12.171875 -5.003906 12.535156 -4.882812 12.816406 -4.582031 C 13.097656 -4.28125 13.300781 -3.820312 13.300781 -3.160156 C 13.300781 -2.445312 13.074219 -1.960938 12.738281 -1.652344 C 12.402344 -1.332031 11.953125 -1.210938 11.535156 -1.210938 Z M 11.535156 -1.210938 "/></g></g></g><g fill="#ffffff" fill-opacity="1"><g transform="translate(37.766845, 72.41615)"><g><path d="M 7.140625 0.257812 C 7.820312 0.257812 8.722656 0.148438 9.59375 -0.105469 C 10.46875 -0.351562 11.308594 -0.75 11.898438 -1.339844 L 12.179688 -1.617188 C 12.261719 -1.695312 12.332031 -1.773438 12.382812 -1.863281 C 12.480469 -2.039062 12.515625 -2.234375 12.453125 -2.578125 C 12.324219 -2.796875 12.15625 -2.886719 11.941406 -2.894531 C 11.730469 -2.894531 11.5 -2.816406 11.261719 -2.746094 C 11.078125 -2.664062 10.902344 -2.585938 10.742188 -2.488281 C 10.574219 -2.390625 10.414062 -2.285156 10.25 -2.1875 C 9.914062 -1.984375 9.550781 -1.800781 9.066406 -1.640625 C 8.578125 -1.484375 7.980469 -1.367188 7.160156 -1.339844 C 6.214844 -1.304688 5.289062 -1.625 4.582031 -2.304688 C 3.875 -2.984375 3.40625 -4.023438 3.40625 -5.402344 C 3.40625 -7.300781 3.972656 -8.625 4.8125 -9.480469 C 5.648438 -10.328125 6.734375 -10.699219 7.785156 -10.691406 C 8.421875 -10.664062 8.84375 -10.617188 9.164062 -10.414062 C 9.507812 -10.203125 9.746094 -9.964844 9.929688 -9.65625 C 10.105469 -9.347656 10.238281 -8.96875 10.355469 -8.484375 L 12.304688 -7.847656 C 12.695312 -8.261719 12.808594 -8.800781 12.746094 -9.367188 C 12.683594 -9.929688 12.464844 -10.503906 12.179688 -10.972656 C 11.890625 -11.441406 11.535156 -11.800781 11.226562 -11.933594 C 10.195312 -12.4375 8.984375 -12.648438 7.582031 -12.648438 C 5.613281 -12.648438 3.894531 -12.121094 2.664062 -10.988281 C 1.429688 -9.851562 0.699219 -8.085938 0.699219 -5.640625 C 0.699219 -3.777344 1.253906 -2.3125 2.339844 -1.304688 C 3.425781 -0.300781 5.03125 0.257812 7.140625 0.257812 Z M 7.140625 0.257812 "/></g></g></g><g fill="#ffffff" fill-opacity="1"><g transform="translate(51.496128, 72.41615)"><g><path d="M 5.417969 0.257812 C 5.949219 0.257812 6.621094 0.175781 7.292969 -0.0195312 C 7.953125 -0.210938 8.589844 -0.503906 9.039062 -0.953125 C 9.1875 -1.101562 9.332031 -1.246094 9.410156 -1.414062 C 9.488281 -1.578125 9.523438 -1.757812 9.488281 -2.03125 C 9.460938 -2.109375 9.410156 -2.171875 9.347656 -2.199219 C 9.214844 -2.257812 9.039062 -2.242188 8.84375 -2.1875 L 8.5625 -2.109375 C 8.351562 -2.039062 8.148438 -1.960938 7.960938 -1.863281 C 7.769531 -1.765625 7.554688 -1.675781 7.335938 -1.597656 C 6.886719 -1.429688 6.363281 -1.296875 5.597656 -1.269531 C 5.164062 -1.246094 4.722656 -1.394531 4.34375 -1.675781 C 3.964844 -1.960938 3.644531 -2.375 3.460938 -2.894531 C 5.816406 -2.9375 7.457031 -3.433594 8.519531 -4.140625 C 9.570312 -4.847656 10.027344 -5.78125 10.019531 -6.726562 C 10.011719 -7.539062 9.648438 -8.113281 9.128906 -8.507812 C 8.605469 -8.90625 7.925781 -9.136719 7.292969 -9.257812 C 6.65625 -9.382812 6.054688 -9.410156 5.703125 -9.410156 C 4.429688 -9.410156 3.195312 -9.074219 2.25 -8.269531 C 1.296875 -7.46875 0.660156 -6.207031 0.589844 -4.34375 C 0.53125 -2.9375 0.9375 -1.800781 1.757812 -0.996094 C 2.570312 -0.195312 3.804688 0.257812 5.417969 0.257812 Z M 3.25 -4.105469 L 3.25 -4.113281 C 3.25 -5.304688 3.617188 -6.136719 4.148438 -6.664062 C 4.679688 -7.195312 5.375 -7.433594 6.019531 -7.441406 C 6.257812 -7.449219 6.65625 -7.398438 7 -7.230469 C 7.34375 -7.0625 7.636719 -6.777344 7.660156 -6.320312 C 7.695312 -5.640625 7.34375 -5.164062 6.824219 -4.847656 C 6.292969 -4.519531 5.585938 -4.335938 4.925781 -4.238281 C 4.253906 -4.132812 3.628906 -4.105469 3.25 -4.105469 Z M 3.25 -4.105469 "/></g></g></g><g fill="#ffffff" fill-opacity="1"><g transform="translate(61.748894, 72.41615)"><g><path d="M 9.746094 0.292969 C 9.992188 0.371094 10.230469 0.351562 10.453125 0.175781 C 10.59375 0.0703125 10.691406 -0.140625 10.691406 -0.363281 C 10.679688 -0.582031 10.566406 -0.839844 10.285156 -1.042969 C 9.285156 -1.828125 8.023438 -3 6.753906 -4.238281 C 7.46875 -4.941406 8.15625 -5.632812 8.710938 -6.207031 C 9.269531 -6.769531 9.691406 -7.230469 9.878906 -7.476562 C 10.125 -7.785156 10.152344 -8.09375 10.082031 -8.351562 C 10.011719 -8.605469 9.832031 -8.816406 9.65625 -8.960938 C 9.375 -9.171875 8.984375 -9.3125 8.605469 -9.320312 C 8.21875 -9.332031 7.855469 -9.214844 7.644531 -8.90625 C 7.503906 -8.703125 7.167969 -8.296875 6.707031 -7.777344 C 6.25 -7.257812 5.667969 -6.613281 5.039062 -5.933594 C 4.574219 -6.390625 4.140625 -6.824219 3.742188 -7.238281 C 2.929688 -8.058594 2.304688 -8.722656 1.703125 -9.355469 L 0.328125 -8.484375 C 0.316406 -8.484375 0.40625 -8.386719 0.589844 -8.183594 C 0.777344 -7.980469 1.03125 -7.707031 1.359375 -7.363281 C 2.019531 -6.671875 2.921875 -5.730469 3.9375 -4.730469 C 3.488281 -4.238281 3.035156 -3.761719 2.605469 -3.300781 C 1.722656 -2.375 1.007812 -1.625 0.554688 -1.175781 C 0.335938 -0.945312 0.203125 -0.820312 0.175781 -0.804688 L 2.066406 0.238281 L 2.367188 -0.0351562 C 2.570312 -0.21875 2.832031 -0.46875 3.160156 -0.777344 C 3.8125 -1.394531 4.6875 -2.234375 5.597656 -3.117188 C 6.796875 -1.976562 7.988281 -0.910156 8.949219 -0.140625 C 9.222656 0.0625 9.488281 0.21875 9.746094 0.292969 Z M 9.746094 0.292969 "/></g></g></g><g fill="#ffffff" fill-opacity="1"><g transform="translate(72.69004, 72.41615)"><g/></g></g><g fill="#ffffff" fill-opacity="1"><g transform="translate(77.375321, 72.41615)"><g><path d="M 8.828125 0.078125 C 9.1875 0.140625 9.558594 0.0625 9.832031 -0.167969 C 10.105469 -0.398438 10.285156 -0.777344 10.285156 -1.367188 C 10.285156 -1.578125 10.203125 -1.773438 10.089844 -1.925781 C 9.976562 -2.074219 9.832031 -2.171875 9.691406 -2.207031 C 9.234375 -2.3125 8.625 -2.355469 7.953125 -2.367188 C 7.28125 -2.375 6.550781 -2.339844 5.84375 -2.296875 C 5.136719 -2.25 4.457031 -2.179688 3.902344 -2.117188 C 3.902344 -2.9375 3.917969 -4 3.953125 -5.121094 C 3.964844 -5.675781 3.980469 -6.25 4 -6.832031 C 4.007812 -7.40625 4.023438 -7.972656 4.042969 -8.507812 C 4.078125 -9.78125 4.121094 -11.085938 4.175781 -12.417969 L 2.789062 -12.382812 L 2.796875 -12.410156 L 0.839844 -12.332031 L 0.839844 -11.050781 L 1.484375 -11.078125 L 1.449219 -1.792969 C 1.4375 -1.023438 1.449219 -0.566406 1.667969 -0.300781 C 1.878906 -0.0351562 2.320312 0.0429688 3.167969 0.0429688 C 3.214844 0.0351562 3.265625 0.0351562 3.308594 0.0273438 C 3.355469 0.0273438 3.390625 0.0195312 3.433594 0.0078125 C 3.785156 -0.0195312 4.359375 -0.0429688 5.003906 -0.0546875 C 5.640625 -0.0625 6.375 -0.0625 7.054688 -0.0429688 C 7.722656 -0.0273438 8.359375 0.0195312 8.828125 0.078125 Z M 8.828125 0.078125 "/></g></g></g><g fill="#ffffff" fill-opacity="1"><g transform="translate(88.104702, 72.41615)"><g><path d="M 3.820312 0.140625 L 4 -8.703125 C 4.007812 -8.898438 3.980469 -9.046875 3.917969 -9.144531 C 3.804688 -9.339844 3.628906 -9.402344 3.453125 -9.410156 L 3.222656 -9.4375 C 3.070312 -9.472656 3.054688 -9.65625 3.054688 -9.9375 L 3.054688 -10.195312 C 3.046875 -10.292969 3.046875 -10.371094 3.046875 -10.414062 C 3.046875 -10.53125 3.167969 -10.582031 3.335938 -10.628906 C 3.503906 -10.671875 3.699219 -10.714844 3.867188 -10.847656 C 4.035156 -10.980469 4.15625 -11.191406 4.15625 -11.554688 C 4.15625 -11.96875 4.007812 -12.242188 3.75 -12.417969 C 3.496094 -12.597656 3.125 -12.667969 2.675781 -12.667969 C 1.710938 -12.667969 1.15625 -12.367188 1.15625 -11.554688 C 1.15625 -11.28125 1.21875 -11.078125 1.339844 -10.953125 C 1.578125 -10.707031 1.898438 -10.636719 2.144531 -10.582031 C 2.257812 -10.558594 2.320312 -10.496094 2.320312 -10.414062 L 2.320312 -10.320312 C 2.320312 -10.273438 2.320312 -10.222656 2.332031 -10.175781 C 2.332031 -10.125 2.332031 -10.082031 2.332031 -10.035156 L 2.332031 -9.9375 C 2.332031 -9.808594 2.3125 -9.691406 2.285156 -9.59375 C 2.222656 -9.402344 2.09375 -9.402344 1.890625 -9.402344 C 1.792969 -9.390625 1.695312 -9.375 1.605469 -9.339844 C 1.429688 -9.269531 1.289062 -9.109375 1.289062 -8.722656 L 1.289062 -0.0429688 Z M 3.820312 0.140625 "/></g></g></g><g fill="#ffffff" fill-opacity="1"><g transform="translate(93.301747, 72.41615)"><g><path d="M 4.953125 0.273438 C 5.738281 0.273438 6.539062 0.210938 7.273438 0.0429688 C 8.007812 -0.125 8.652344 -0.378906 9.117188 -0.792969 C 9.578125 -1.210938 9.859375 -1.757812 9.859375 -2.488281 C 9.859375 -2.84375 9.796875 -3.152344 9.683594 -3.40625 C 9.4375 -3.917969 9.011719 -4.261719 8.449219 -4.492188 C 7.882812 -4.722656 7.210938 -4.871094 6.488281 -4.976562 C 6.125 -5.03125 5.753906 -5.085938 5.394531 -5.144531 C 4.644531 -5.21875 4.15625 -5.375 3.859375 -5.585938 C 3.558594 -5.789062 3.441406 -6.039062 3.441406 -6.277344 C 3.441406 -6.550781 3.617188 -6.867188 3.964844 -7.113281 C 4.308594 -7.363281 4.800781 -7.546875 5.4375 -7.546875 C 6.003906 -7.546875 6.445312 -7.457031 6.796875 -7.28125 C 7.148438 -7.105469 7.421875 -6.851562 7.671875 -6.523438 L 9.832031 -7.097656 C 9.699219 -8.128906 9.214844 -8.757812 8.5 -9.117188 C 7.785156 -9.472656 6.851562 -9.570312 5.824219 -9.570312 C 4.476562 -9.570312 3.222656 -9.214844 2.3125 -8.632812 C 1.394531 -8.050781 0.820312 -7.257812 0.820312 -6.375 C 0.820312 -5.675781 1.101562 -5.128906 1.625 -4.703125 C 2.144531 -4.273438 2.886719 -3.980469 3.8125 -3.8125 C 4.335938 -3.714844 4.8125 -3.617188 5.242188 -3.539062 C 5.675781 -3.460938 6.046875 -3.363281 6.355469 -3.265625 C 6.980469 -3.0625 7.351562 -2.808594 7.351562 -2.382812 C 7.351562 -1.933594 7.0625 -1.632812 6.621094 -1.457031 C 6.179688 -1.269531 5.578125 -1.191406 4.988281 -1.191406 C 4.105469 -1.191406 3.453125 -1.296875 2.902344 -1.492188 C 2.355469 -1.6875 1.933594 -1.96875 1.507812 -2.320312 C 1.324219 -2.382812 1.058594 -2.296875 0.882812 -2.152344 C 0.699219 -2.011719 0.574219 -1.800781 0.652344 -1.589844 C 0.972656 -0.875 1.578125 -0.40625 2.339844 -0.125 C 3.097656 0.167969 4.007812 0.273438 4.953125 0.273438 Z M 4.953125 0.273438 "/></g></g></g><g fill="#ffffff" fill-opacity="1"><g transform="translate(103.792894, 72.41615)"><g><path d="M 4.667969 0.292969 C 5.121094 0.335938 5.773438 0.273438 6.390625 0.105469 C 7.007812 -0.0625 7.601562 -0.316406 7.925781 -0.644531 C 8.253906 -0.972656 8.339844 -1.367188 7.945312 -1.820312 C 7.839844 -1.933594 7.734375 -2.003906 7.617188 -2.019531 C 7.386719 -2.058594 7.132812 -1.96875 6.875 -1.828125 C 6.742188 -1.757812 6.613281 -1.695312 6.480469 -1.632812 C 6.207031 -1.519531 5.933594 -1.429688 5.648438 -1.535156 C 4.941406 -1.597656 4.539062 -1.90625 4.296875 -2.410156 C 4.058594 -2.914062 3.988281 -3.601562 3.980469 -4.441406 C 3.980469 -4.519531 3.980469 -4.652344 3.988281 -4.855469 C 4 -5.242188 4.023438 -5.808594 4.070312 -6.496094 L 4.121094 -7.574219 L 6.53125 -7.601562 C 6.71875 -7.601562 6.921875 -7.679688 7.070312 -7.804688 C 7.21875 -7.925781 7.328125 -8.09375 7.328125 -8.304688 C 7.328125 -8.84375 7.007812 -9.1875 6.691406 -9.179688 L 4.210938 -9.101562 L 4.289062 -10.496094 C 4.335938 -11.378906 4.386719 -12.109375 4.429688 -12.808594 L 1.738281 -12.753906 C 1.722656 -12.410156 1.703125 -12.03125 1.675781 -11.625 C 1.660156 -11.28125 1.640625 -10.882812 1.617188 -10.441406 C 1.589844 -9.992188 1.570312 -9.523438 1.542969 -9.019531 L 0.328125 -8.984375 L 0.371094 -7.53125 L 1.472656 -7.539062 C 1.414062 -6.347656 1.386719 -5.21875 1.378906 -4.414062 C 1.367188 -2.976562 1.542969 -1.871094 2.046875 -1.078125 C 2.550781 -0.28125 3.371094 0.183594 4.667969 0.292969 Z M 4.667969 0.292969 "/></g></g></g><g fill="#ffffff" fill-opacity="1"><g transform="translate(112.386987, 72.41615)"><g><path d="M 3.820312 0.140625 L 4 -8.703125 C 4.007812 -8.898438 3.980469 -9.046875 3.917969 -9.144531 C 3.804688 -9.339844 3.628906 -9.402344 3.453125 -9.410156 L 3.222656 -9.4375 C 3.070312 -9.472656 3.054688 -9.65625 3.054688 -9.9375 L 3.054688 -10.195312 C 3.046875 -10.292969 3.046875 -10.371094 3.046875 -10.414062 C 3.046875 -10.53125 3.167969 -10.582031 3.335938 -10.628906 C 3.503906 -10.671875 3.699219 -10.714844 3.867188 -10.847656 C 4.035156 -10.980469 4.15625 -11.191406 4.15625 -11.554688 C 4.15625 -11.96875 4.007812 -12.242188 3.75 -12.417969 C 3.496094 -12.597656 3.125 -12.667969 2.675781 -12.667969 C 1.710938 -12.667969 1.15625 -12.367188 1.15625 -11.554688 C 1.15625 -11.28125 1.21875 -11.078125 1.339844 -10.953125 C 1.578125 -10.707031 1.898438 -10.636719 2.144531 -10.582031 C 2.257812 -10.558594 2.320312 -10.496094 2.320312 -10.414062 L 2.320312 -10.320312 C 2.320312 -10.273438 2.320312 -10.222656 2.332031 -10.175781 C 2.332031 -10.125 2.332031 -10.082031 2.332031 -10.035156 L 2.332031 -9.9375 C 2.332031 -9.808594 2.3125 -9.691406 2.285156 -9.59375 C 2.222656 -9.402344 2.09375 -9.402344 1.890625 -9.402344 C 1.792969 -9.390625 1.695312 -9.375 1.605469 -9.339844 C 1.429688 -9.269531 1.289062 -9.109375 1.289062 -8.722656 L 1.289062 -0.0429688 Z M 3.820312 0.140625 "/></g></g></g><g fill="#ffffff" fill-opacity="1"><g transform="translate(117.584032, 72.41615)"><g><path d="M 3.214844 0.246094 C 3.46875 0.246094 3.644531 0.175781 3.761719 0.0703125 C 3.867188 -0.0351562 3.929688 -0.175781 3.953125 -0.308594 C 4.023438 -0.8125 4.148438 -1.507812 4.34375 -2.269531 C 4.539062 -3.027344 4.777344 -3.839844 5.09375 -4.609375 C 5.402344 -5.375 5.773438 -6.074219 6.207031 -6.585938 C 6.636719 -7.097656 7.132812 -7.40625 7.6875 -7.40625 C 8.367188 -7.40625 8.835938 -7.070312 9.082031 -6.152344 C 9.332031 -5.234375 9.375 -3.726562 9.234375 -1.394531 C 9.199219 -0.804688 9.25 -0.40625 9.453125 -0.140625 C 9.65625 0.125 10 0.246094 10.539062 0.246094 C 10.9375 0.246094 11.261719 0.125 11.492188 -0.210938 C 11.722656 -0.546875 11.871094 -1.078125 11.933594 -1.914062 C 12.101562 -4.394531 12.003906 -6.277344 11.476562 -7.519531 C 10.945312 -8.765625 9.976562 -9.402344 8.386719 -9.402344 C 7.40625 -9.402344 6.621094 -9.019531 5.992188 -8.457031 C 5.359375 -7.890625 4.882812 -7.140625 4.539062 -6.375 C 4.183594 -5.605469 3.964844 -4.835938 3.832031 -4.261719 C 3.832031 -4.324219 3.832031 -4.441406 3.839844 -4.617188 C 3.839844 -4.785156 3.839844 -4.996094 3.847656 -5.242188 C 3.847656 -5.492188 3.847656 -5.765625 3.859375 -6.0625 C 3.867188 -6.363281 3.867188 -6.664062 3.875 -6.964844 C 3.882812 -7.679688 3.902344 -8.464844 3.917969 -9.320312 L 1.289062 -9.109375 L 1.289062 -0.078125 C 1.808594 -0.0898438 2.058594 0 2.304688 0.078125 C 2.542969 0.160156 2.753906 0.246094 3.214844 0.246094 Z M 3.214844 0.246094 "/></g></g></g><g fill="#ffffff" fill-opacity="1"><g transform="translate(130.616348, 72.41615)"><g><path d="M 5.886719 3.902344 C 6.65625 3.910156 7.476562 3.761719 8.21875 3.398438 C 8.960938 3.035156 9.628906 2.460938 10.125 1.652344 C 10.609375 0.839844 10.910156 -0.21875 10.910156 -1.5625 C 10.910156 -2.375 10.855469 -3.238281 10.8125 -4.140625 C 10.769531 -5.039062 10.726562 -5.96875 10.734375 -6.921875 C 10.664062 -6.945312 10.582031 -6.972656 10.496094 -7 L 9.921875 -7.160156 L 10.203125 -7.785156 C 9.734375 -8.21875 9.199219 -8.632812 8.5 -8.933594 C 7.804688 -9.234375 6.945312 -9.410156 5.851562 -9.410156 C 5.003906 -9.410156 4.15625 -9.25 3.390625 -8.898438 C 2.613281 -8.542969 1.941406 -8.007812 1.449219 -7.238281 C 0.945312 -6.46875 0.625 -5.480469 0.582031 -4.246094 C 0.519531 -2.949219 0.828125 -1.828125 1.464844 -1.03125 C 2.09375 -0.238281 3.046875 0.238281 4.308594 0.238281 C 5.683594 0.238281 6.539062 -0.160156 7.125 -0.804688 C 7.707031 -1.449219 8.023438 -2.355469 8.332031 -3.40625 C 8.332031 -3.179688 8.339844 -2.894531 8.367188 -2.570312 C 8.394531 -2.242188 8.402344 -1.863281 8.402344 -1.4375 C 8.402344 -0.898438 8.332031 -0.414062 8.191406 0.0195312 C 7.910156 0.875 7.441406 1.507812 6.859375 1.890625 C 6.277344 2.277344 5.710938 2.355469 5.253906 2.367188 C 4.785156 2.375 4.371094 2.355469 4.015625 2.332031 C 3.839844 2.320312 3.691406 2.320312 3.558594 2.339844 C 3.300781 2.375 3.140625 2.472656 3.132812 2.746094 C 3.105469 3.0625 3.195312 3.273438 3.335938 3.417969 C 3.46875 3.558594 3.65625 3.636719 3.859375 3.699219 C 4.148438 3.777344 4.414062 3.820312 4.722656 3.847656 C 5.03125 3.882812 5.394531 3.902344 5.886719 3.902344 Z M 5.015625 -1.472656 C 4.527344 -1.472656 4.097656 -1.703125 3.777344 -2.136719 C 3.460938 -2.570312 3.257812 -3.195312 3.257812 -4 C 3.257812 -5.199219 3.65625 -6.054688 4.21875 -6.621094 C 4.785156 -7.175781 5.515625 -7.433594 6.1875 -7.433594 C 6.957031 -7.433594 7.636719 -7.015625 8.191406 -6.460938 C 8.050781 -5.710938 7.882812 -4.90625 7.644531 -4.175781 C 7.398438 -3.433594 7.089844 -2.761719 6.664062 -2.269531 C 6.242188 -1.773438 5.710938 -1.472656 5.015625 -1.472656 Z M 5.015625 -1.472656 "/></g></g></g><g fill="#ffffff" fill-opacity="1"><g transform="translate(72.421253, 96.975029)"><g><path d="M 2.808594 0.246094 C 3.539062 0.246094 3.980469 0.0976562 4.238281 -0.21875 C 4.492188 -0.539062 4.5625 -1.023438 4.5625 -1.695312 L 4.421875 -12.4375 L 4.40625 -12.429688 L 4.421875 -12.445312 C 3.601562 -12.347656 2.699219 -12.050781 1.914062 -11.730469 C 1.128906 -11.414062 0.46875 -11.070312 0.125 -10.894531 L 0.433594 -9.699219 L 1.925781 -10.285156 C 1.925781 -10.011719 1.925781 -9.664062 1.925781 -9.269531 L 1.925781 -7.960938 C 1.925781 -7.496094 1.925781 -7 1.925781 -6.480469 L 1.925781 -4.933594 C 1.914062 -3.910156 1.898438 -2.921875 1.878906 -2.117188 C 1.863281 -1.316406 1.828125 -0.699219 1.792969 -0.414062 C 1.835938 -0.265625 1.960938 -0.105469 2.136719 0.0273438 C 2.3125 0.160156 2.535156 0.246094 2.808594 0.246094 Z M 2.808594 0.246094 "/></g></g></g><g fill="#ffffff" fill-opacity="1"><g transform="translate(78.571236, 96.975029)"><g><path d="M 6.328125 0.230469 C 7.449219 0.230469 8.535156 0.0195312 9.488281 -0.421875 C 10.441406 -0.863281 11.253906 -1.554688 11.835938 -2.515625 C 12.417969 -3.476562 12.753906 -4.722656 12.753906 -6.285156 C 12.753906 -8.09375 12.214844 -9.628906 11.238281 -10.726562 C 10.25 -11.8125 8.84375 -12.4375 7.113281 -12.4375 C 5.480469 -12.4375 4.183594 -12.085938 3.195312 -11.484375 C 2.199219 -10.882812 1.5 -10.046875 1.050781 -9.066406 C 0.601562 -8.085938 0.40625 -6.972656 0.414062 -5.835938 C 0.421875 -5.136719 0.582031 -4.378906 0.847656 -3.777344 C 1.113281 -3.167969 1.484375 -2.71875 1.96875 -2.65625 L 1.332031 -2.242188 C 1.855469 -1.402344 2.558594 -0.785156 3.40625 -0.378906 C 4.253906 0.0273438 5.242188 0.230469 6.328125 0.230469 Z M 6.277344 -1.722656 C 5.527344 -1.722656 4.871094 -1.933594 4.34375 -2.257812 C 3.8125 -2.578125 3.40625 -3.011719 3.152344 -3.441406 L 2.894531 -3.273438 C 2.921875 -3.398438 2.929688 -3.539062 2.929688 -3.699219 C 2.929688 -3.859375 2.921875 -4.035156 2.914062 -4.238281 C 2.878906 -4.625 2.84375 -5.109375 2.832031 -5.675781 C 2.808594 -6.355469 2.886719 -7.132812 3.117188 -7.855469 C 3.34375 -8.578125 3.726562 -9.242188 4.335938 -9.734375 C 4.941406 -10.222656 5.78125 -10.53125 6.910156 -10.53125 C 7.652344 -10.53125 8.457031 -10.222656 9.082031 -9.550781 C 9.710938 -8.871094 10.140625 -7.8125 10.140625 -6.292969 C 10.140625 -4.597656 9.628906 -3.453125 8.890625 -2.738281 C 8.148438 -2.019531 7.183594 -1.722656 6.277344 -1.722656 Z M 6.277344 -1.722656 "/></g></g></g><g fill="#ffffff" fill-opacity="1"><g transform="translate(92.194727, 96.975029)"><g><path d="M 4.253906 0.300781 C 4.34375 0.300781 4.441406 0.28125 4.539062 0.257812 C 4.730469 0.203125 4.90625 0.0976562 5.015625 -0.0898438 C 5.507812 -0.996094 6.117188 -2.082031 6.777344 -3.230469 L 8.816406 -6.761719 C 9.496094 -7.925781 10.152344 -9.054688 10.714844 -10.046875 C 11.273438 -11.023438 11.730469 -11.855469 12.039062 -12.445312 L 10.714844 -12.886719 C 10.1875 -12.003906 9.550781 -10.929688 8.871094 -9.773438 C 8.527344 -9.1875 8.183594 -8.597656 7.820312 -7.988281 C 7.457031 -7.378906 7.105469 -6.769531 6.761719 -6.179688 C 6.0625 -4.976562 5.402344 -3.839844 4.847656 -2.859375 C 4.28125 -1.878906 3.820312 -1.078125 3.539062 -0.574219 C 3.503906 -0.511719 3.488281 -0.441406 3.488281 -0.363281 C 3.488281 -0.273438 3.503906 -0.183594 3.546875 -0.105469 C 3.617188 0.0703125 3.785156 0.230469 4.035156 0.265625 C 4.085938 0.292969 4.15625 0.300781 4.253906 0.300781 Z M 3.671875 -6.011719 C 4.625 -6.011719 5.515625 -6.265625 6.171875 -6.816406 C 6.824219 -7.363281 7.230469 -8.210938 7.230469 -9.402344 C 7.230469 -10.363281 6.9375 -11.191406 6.410156 -11.785156 C 5.871094 -12.375 5.085938 -12.71875 4.097656 -12.71875 C 2.71875 -12.71875 1.792969 -12.289062 1.199219 -11.632812 C 0.609375 -10.980469 0.371094 -10.105469 0.378906 -9.234375 C 0.378906 -8.84375 0.476562 -8.429688 0.644531 -8.113281 C 0.8125 -7.792969 1.050781 -7.574219 1.339844 -7.539062 L 0.925781 -7.246094 C 1.5 -6.390625 2.445312 -6.011719 3.671875 -6.011719 Z M 3.671875 -7.449219 C 2.976562 -7.449219 2.5 -7.8125 2.257812 -8.175781 L 2.039062 -8.015625 C 2.109375 -8.304688 2.117188 -8.703125 2.109375 -9.152344 C 2.101562 -9.605469 2.179688 -10.125 2.453125 -10.539062 C 2.726562 -10.953125 3.195312 -11.246094 3.964844 -11.246094 C 4.308594 -11.246094 4.667969 -11.121094 4.953125 -10.820312 C 5.234375 -10.523438 5.4375 -10.0625 5.4375 -9.402344 C 5.4375 -8.6875 5.207031 -8.199219 4.871094 -7.890625 C 4.539062 -7.574219 4.085938 -7.449219 3.671875 -7.449219 Z M 11.535156 0.230469 C 12.492188 0.230469 13.382812 -0.0273438 14.035156 -0.574219 C 14.6875 -1.121094 15.09375 -1.96875 15.09375 -3.160156 C 15.09375 -4.121094 14.804688 -4.953125 14.273438 -5.542969 C 13.734375 -6.136719 12.949219 -6.480469 11.960938 -6.480469 C 10.582031 -6.480469 9.65625 -6.046875 9.066406 -5.394531 C 8.472656 -4.738281 8.234375 -3.867188 8.246094 -2.992188 C 8.246094 -2.59375 8.339844 -2.179688 8.507812 -1.863281 C 8.675781 -1.542969 8.925781 -1.324219 9.214844 -1.296875 L 8.792969 -0.996094 C 9.367188 -0.148438 10.308594 0.230469 11.535156 0.230469 Z M 11.535156 -1.210938 C 10.839844 -1.210938 10.363281 -1.570312 10.125 -1.933594 L 9.902344 -1.773438 C 9.976562 -2.066406 9.984375 -2.460938 9.976562 -2.914062 C 9.964844 -3.363281 10.046875 -3.882812 10.320312 -4.296875 C 10.59375 -4.714844 11.058594 -5.003906 11.828125 -5.003906 C 12.171875 -5.003906 12.535156 -4.882812 12.816406 -4.582031 C 13.097656 -4.28125 13.300781 -3.820312 13.300781 -3.160156 C 13.300781 -2.445312 13.074219 -1.960938 12.738281 -1.652344 C 12.402344 -1.332031 11.953125 -1.210938 11.535156 -1.210938 Z M 11.535156 -1.210938 "/></g></g></g><g fill="#ffffff" fill-opacity="1"><g transform="translate(176.130926, 18.711619)"><g><path d="M 15.09375 0.230469 C 15.351562 0.230469 15.625 0.140625 15.808594 0.0195312 C 15.996094 -0.105469 16.117188 -0.265625 16.109375 -0.433594 C 16.101562 -0.554688 16.09375 -0.742188 16.082031 -0.980469 C 16.066406 -1.457031 16.046875 -2.101562 16.03125 -2.886719 C 16.011719 -3.671875 15.996094 -4.546875 15.996094 -5.472656 C 15.984375 -5.933594 15.984375 -6.390625 15.976562 -6.839844 C 15.960938 -8.449219 15.949219 -10.214844 15.949219 -12.136719 C 15.949219 -12.289062 15.914062 -12.382812 15.835938 -12.445312 C 15.675781 -12.5625 15.394531 -12.570312 15.050781 -12.507812 C 14.875 -12.472656 14.6875 -12.4375 14.503906 -12.410156 C 14.113281 -12.339844 13.71875 -12.277344 13.390625 -12.347656 C 13.382812 -12.359375 13.375 -12.359375 13.375 -12.359375 C 12.324219 -10.875 11.40625 -9.4375 10.609375 -8.09375 C 9.816406 -6.753906 9.128906 -5.527344 8.5625 -4.464844 C 8.042969 -5.410156 7.503906 -6.496094 7 -7.546875 C 6.496094 -8.597656 6.027344 -9.613281 5.675781 -10.398438 C 5.5 -10.796875 5.347656 -11.121094 5.234375 -11.394531 C 5.109375 -11.660156 5.03125 -11.835938 4.988281 -11.917969 C 4.820312 -12.234375 4.539062 -12.359375 4.183594 -12.367188 C 3.832031 -12.375 3.417969 -12.296875 3.011719 -12.234375 C 2.605469 -12.164062 2.214844 -12.121094 1.90625 -12.199219 C 1.695312 -10.617188 1.542969 -8.941406 1.449219 -7.328125 C 1.351562 -5.703125 1.296875 -4.167969 1.289062 -2.886719 C 1.28125 -1.605469 1.316406 -0.589844 1.359375 -0.0273438 L 3.1875 0.0351562 C 3.179688 0.0351562 3.167969 -0.0976562 3.167969 -0.371094 C 3.167969 -0.636719 3.167969 -0.996094 3.179688 -1.449219 C 3.179688 -2.355469 3.195312 -3.601562 3.230469 -4.953125 C 3.257812 -6.292969 3.292969 -7.742188 3.355469 -9.054688 C 3.894531 -7.890625 4.484375 -6.636719 5.050781 -5.480469 C 5.613281 -4.316406 6.160156 -3.257812 6.621094 -2.480469 C 6.796875 -2.128906 6.964844 -1.792969 7.175781 -1.542969 C 7.386719 -1.296875 7.636719 -1.148438 7.988281 -1.148438 C 8.351562 -1.148438 8.800781 -1.324219 9.1875 -1.667969 C 9.207031 -1.6875 9.277344 -1.800781 9.390625 -2.003906 L 10.53125 -4.035156 C 10.785156 -4.492188 11.070312 -4.988281 11.378906 -5.527344 C 11.976562 -6.59375 12.667969 -7.792969 13.375 -8.984375 L 13.375 -1.792969 C 13.363281 -1.121094 13.425781 -0.625 13.683594 -0.28125 C 13.929688 0.0625 14.363281 0.230469 15.09375 0.230469 Z M 15.09375 0.230469 "/></g></g></g><g fill="#ffffff" fill-opacity="1"><g transform="translate(193.698524, 18.711619)"><g><path d="M 10.132812 0.246094 C 10.355469 0.246094 10.539062 0.210938 10.691406 0.148438 C 10.980469 0.0273438 11.15625 -0.132812 11.238281 -0.273438 C 11.273438 -0.335938 11.289062 -0.371094 11.296875 -0.378906 C 11.261719 -0.421875 11.21875 -0.566406 11.15625 -0.820312 C 11.09375 -1.066406 11.035156 -1.449219 10.972656 -1.96875 C 10.847656 -3 10.742188 -4.609375 10.769531 -6.964844 C 10.671875 -6.980469 10.574219 -7 10.46875 -7.027344 L 10.175781 -7.078125 C 10.0625 -7.097656 9.949219 -7.113281 9.832031 -7.140625 L 10.222656 -7.777344 C 9.699219 -8.210938 9.136719 -8.625 8.4375 -8.925781 C 7.734375 -9.222656 6.902344 -9.410156 5.84375 -9.410156 C 4.996094 -9.410156 4.148438 -9.25 3.378906 -8.898438 C 2.613281 -8.542969 1.941406 -8.007812 1.449219 -7.238281 C 0.945312 -6.46875 0.625 -5.480469 0.582031 -4.246094 C 0.519531 -2.949219 0.820312 -1.828125 1.457031 -1.03125 C 2.09375 -0.238281 3.046875 0.238281 4.308594 0.238281 C 5.683594 0.238281 6.59375 -0.238281 7.210938 -0.9375 C 7.828125 -1.632812 8.15625 -2.535156 8.375 -3.40625 C 8.375 -2.390625 8.375 -1.632812 8.527344 -0.882812 C 8.632812 -0.460938 8.84375 -0.175781 9.128906 0 C 9.410156 0.175781 9.753906 0.246094 10.132812 0.246094 Z M 5.003906 -1.472656 C 4.519531 -1.472656 4.085938 -1.710938 3.769531 -2.152344 C 3.441406 -2.59375 3.238281 -3.214844 3.238281 -4.015625 C 3.238281 -5.242188 3.644531 -6.109375 4.210938 -6.65625 C 4.777344 -7.203125 5.515625 -7.433594 6.1875 -7.433594 C 6.972656 -7.40625 7.660156 -6.964844 8.226562 -6.398438 C 8.078125 -5.65625 7.898438 -4.863281 7.652344 -4.132812 C 7.40625 -3.398438 7.089844 -2.746094 6.664062 -2.257812 C 6.242188 -1.773438 5.703125 -1.472656 5.003906 -1.472656 Z M 5.003906 -1.472656 "/></g></g></g><g fill="#ffffff" fill-opacity="1"><g transform="translate(205.830842, 18.711619)"><g><path d="M 3.214844 0.246094 C 3.46875 0.246094 3.644531 0.175781 3.761719 0.0703125 C 3.867188 -0.0351562 3.929688 -0.175781 3.953125 -0.308594 C 4.035156 -0.980469 4.203125 -1.96875 4.457031 -3 C 4.703125 -4.023438 5.058594 -5.09375 5.542969 -5.90625 C 6.027344 -6.707031 6.648438 -7.257812 7.421875 -7.257812 C 7.785156 -7.257812 7.980469 -7.113281 8.09375 -6.910156 C 8.199219 -6.699219 8.226562 -6.433594 8.234375 -6.179688 C 8.246094 -5.921875 8.414062 -5.710938 8.652344 -5.578125 C 8.890625 -5.445312 9.199219 -5.382812 9.507812 -5.445312 C 9.78125 -5.492188 10.070312 -5.605469 10.292969 -5.851562 C 10.511719 -6.089844 10.671875 -6.453125 10.671875 -7.007812 C 10.671875 -7.890625 10.425781 -8.492188 9.992188 -8.871094 C 9.558594 -9.25 8.933594 -9.402344 8.191406 -9.402344 C 7.210938 -9.390625 6.453125 -9.011719 5.851562 -8.449219 C 5.242188 -7.882812 4.8125 -7.132812 4.492188 -6.375 C 4.167969 -5.613281 3.964844 -4.835938 3.832031 -4.261719 C 3.832031 -4.324219 3.832031 -4.441406 3.839844 -4.617188 C 3.839844 -4.792969 3.839844 -5.003906 3.847656 -5.261719 C 3.847656 -5.507812 3.847656 -5.78125 3.859375 -6.082031 C 3.867188 -6.382812 3.867188 -6.683594 3.875 -6.992188 C 3.882812 -7.707031 3.902344 -8.492188 3.917969 -9.367188 L 1.289062 -9.152344 L 1.289062 -0.078125 C 1.808594 -0.0898438 2.058594 0 2.304688 0.078125 C 2.542969 0.160156 2.753906 0.246094 3.214844 0.246094 Z M 3.214844 0.246094 "/></g></g></g><g fill="#ffffff" fill-opacity="1"><g transform="translate(216.860223, 18.711619)"><g><path d="M 3.214844 0.246094 C 3.734375 0.246094 3.917969 -0.0351562 3.953125 -0.308594 C 4.035156 -1.121094 4.175781 -2.082031 4.441406 -3.046875 C 4.703125 -4 5.074219 -4.960938 5.640625 -5.800781 C 5.402344 -4.925781 5.667969 -3.980469 6.265625 -2.878906 C 6.363281 -2.285156 6.699219 -1.757812 7.160156 -1.296875 C 7.617188 -0.839844 8.199219 -0.46875 8.800781 -0.203125 C 9.402344 0.0625 10.011719 0.230469 10.53125 0.238281 C 11.023438 0.246094 11.414062 0.0703125 11.703125 -0.183594 C 11.988281 -0.433594 12.171875 -0.785156 12.277344 -1.128906 C 11.855469 -1.269531 11.476562 -1.414062 11.023438 -1.632812 C 10.574219 -1.855469 10.089844 -2.179688 9.453125 -2.683594 C 8.578125 -3.539062 7.988281 -4.574219 7.671875 -5.464844 C 7.34375 -6.355469 7.265625 -7.125 7.441406 -7.449219 L 7.441406 -7.546875 C 8.085938 -7.945312 8.855469 -8.210938 9.773438 -8.316406 L 9.472656 -9.382812 C 8.449219 -9.339844 7.519531 -8.941406 6.726562 -8.375 C 5.933594 -7.804688 5.269531 -7.0625 4.777344 -6.320312 C 4.28125 -5.570312 3.964844 -4.828125 3.832031 -4.261719 C 3.832031 -4.378906 3.832031 -4.597656 3.839844 -4.925781 L 3.867188 -6.089844 C 3.875 -6.539062 3.882812 -7.027344 3.894531 -7.566406 L 3.917969 -9.171875 C 3.945312 -10.433594 3.972656 -11.835938 4.007812 -13.375 L 1.289062 -13.152344 L 1.289062 -0.078125 C 1.808594 -0.0898438 2.058594 0 2.304688 0.078125 C 2.542969 0.160156 2.753906 0.246094 3.214844 0.246094 Z M 3.214844 0.246094 "/></g></g></g><g fill="#ffffff" fill-opacity="1"><g transform="translate(228.427568, 18.711619)"><g><path d="M 5.417969 0.257812 C 5.949219 0.257812 6.621094 0.175781 7.292969 -0.0195312 C 7.953125 -0.210938 8.589844 -0.503906 9.039062 -0.953125 C 9.1875 -1.101562 9.332031 -1.246094 9.410156 -1.414062 C 9.488281 -1.578125 9.523438 -1.757812 9.488281 -2.03125 C 9.460938 -2.109375 9.410156 -2.171875 9.347656 -2.199219 C 9.214844 -2.257812 9.039062 -2.242188 8.84375 -2.1875 L 8.5625 -2.109375 C 8.351562 -2.039062 8.148438 -1.960938 7.960938 -1.863281 C 7.769531 -1.765625 7.554688 -1.675781 7.335938 -1.597656 C 6.886719 -1.429688 6.363281 -1.296875 5.597656 -1.269531 C 5.164062 -1.246094 4.722656 -1.394531 4.34375 -1.675781 C 3.964844 -1.960938 3.644531 -2.375 3.460938 -2.894531 C 5.816406 -2.9375 7.457031 -3.433594 8.519531 -4.140625 C 9.570312 -4.847656 10.027344 -5.78125 10.019531 -6.726562 C 10.011719 -7.539062 9.648438 -8.113281 9.128906 -8.507812 C 8.605469 -8.90625 7.925781 -9.136719 7.292969 -9.257812 C 6.65625 -9.382812 6.054688 -9.410156 5.703125 -9.410156 C 4.429688 -9.410156 3.195312 -9.074219 2.25 -8.269531 C 1.296875 -7.46875 0.660156 -6.207031 0.589844 -4.34375 C 0.53125 -2.9375 0.9375 -1.800781 1.757812 -0.996094 C 2.570312 -0.195312 3.804688 0.257812 5.417969 0.257812 Z M 3.25 -4.105469 L 3.25 -4.113281 C 3.25 -5.304688 3.617188 -6.136719 4.148438 -6.664062 C 4.679688 -7.195312 5.375 -7.433594 6.019531 -7.441406 C 6.257812 -7.449219 6.65625 -7.398438 7 -7.230469 C 7.34375 -7.0625 7.636719 -6.777344 7.660156 -6.320312 C 7.695312 -5.640625 7.34375 -5.164062 6.824219 -4.847656 C 6.292969 -4.519531 5.585938 -4.335938 4.925781 -4.238281 C 4.253906 -4.132812 3.628906 -4.105469 3.25 -4.105469 Z M 3.25 -4.105469 "/></g></g></g><g fill="#ffffff" fill-opacity="1"><g transform="translate(239.051067, 18.711619)"><g><path d="M 4.667969 0.292969 C 5.121094 0.335938 5.773438 0.273438 6.390625 0.105469 C 7.007812 -0.0625 7.601562 -0.316406 7.925781 -0.644531 C 8.253906 -0.972656 8.339844 -1.367188 7.945312 -1.820312 C 7.839844 -1.933594 7.734375 -2.003906 7.617188 -2.019531 C 7.386719 -2.058594 7.132812 -1.96875 6.875 -1.828125 C 6.742188 -1.757812 6.613281 -1.695312 6.480469 -1.632812 C 6.207031 -1.519531 5.933594 -1.429688 5.648438 -1.535156 C 4.941406 -1.597656 4.539062 -1.90625 4.296875 -2.410156 C 4.058594 -2.914062 3.988281 -3.601562 3.980469 -4.441406 C 3.980469 -4.519531 3.980469 -4.652344 3.988281 -4.855469 C 4 -5.242188 4.023438 -5.808594 4.070312 -6.496094 L 4.121094 -7.574219 L 6.53125 -7.601562 C 6.71875 -7.601562 6.921875 -7.679688 7.070312 -7.804688 C 7.21875 -7.925781 7.328125 -8.09375 7.328125 -8.304688 C 7.328125 -8.84375 7.007812 -9.1875 6.691406 -9.179688 L 4.210938 -9.101562 L 4.289062 -10.496094 C 4.335938 -11.378906 4.386719 -12.109375 4.429688 -12.808594 L 1.738281 -12.753906 C 1.722656 -12.410156 1.703125 -12.03125 1.675781 -11.625 C 1.660156 -11.28125 1.640625 -10.882812 1.617188 -10.441406 C 1.589844 -9.992188 1.570312 -9.523438 1.542969 -9.019531 L 0.328125 -8.984375 L 0.371094 -7.53125 L 1.472656 -7.539062 C 1.414062 -6.347656 1.386719 -5.21875 1.378906 -4.414062 C 1.367188 -2.976562 1.542969 -1.871094 2.046875 -1.078125 C 2.550781 -0.28125 3.371094 0.183594 4.667969 0.292969 Z M 4.667969 0.292969 "/></g></g></g><g fill="#ffffff" fill-opacity="1"><g transform="translate(247.645161, 18.711619)"><g><path d="M 3.820312 0.140625 L 4 -8.703125 C 4.007812 -8.898438 3.980469 -9.046875 3.917969 -9.144531 C 3.804688 -9.339844 3.628906 -9.402344 3.453125 -9.410156 L 3.222656 -9.4375 C 3.070312 -9.472656 3.054688 -9.65625 3.054688 -9.9375 L 3.054688 -10.195312 C 3.046875 -10.292969 3.046875 -10.371094 3.046875 -10.414062 C 3.046875 -10.53125 3.167969 -10.582031 3.335938 -10.628906 C 3.503906 -10.671875 3.699219 -10.714844 3.867188 -10.847656 C 4.035156 -10.980469 4.15625 -11.191406 4.15625 -11.554688 C 4.15625 -11.96875 4.007812 -12.242188 3.75 -12.417969 C 3.496094 -12.597656 3.125 -12.667969 2.675781 -12.667969 C 1.710938 -12.667969 1.15625 -12.367188 1.15625 -11.554688 C 1.15625 -11.28125 1.21875 -11.078125 1.339844 -10.953125 C 1.578125 -10.707031 1.898438 -10.636719 2.144531 -10.582031 C 2.257812 -10.558594 2.320312 -10.496094 2.320312 -10.414062 L 2.320312 -10.320312 C 2.320312 -10.273438 2.320312 -10.222656 2.332031 -10.175781 C 2.332031 -10.125 2.332031 -10.082031 2.332031 -10.035156 L 2.332031 -9.9375 C 2.332031 -9.808594 2.3125 -9.691406 2.285156 -9.59375 C 2.222656 -9.402344 2.09375 -9.402344 1.890625 -9.402344 C 1.792969 -9.390625 1.695312 -9.375 1.605469 -9.339844 C 1.429688 -9.269531 1.289062 -9.109375 1.289062 -8.722656 L 1.289062 -0.0429688 Z M 3.820312 0.140625 "/></g></g></g><g fill="#ffffff" fill-opacity="1"><g transform="translate(252.842205, 18.711619)"><g><path d="M 3.214844 0.246094 C 3.46875 0.246094 3.644531 0.175781 3.761719 0.0703125 C 3.867188 -0.0351562 3.929688 -0.175781 3.953125 -0.308594 C 4.023438 -0.8125 4.148438 -1.507812 4.34375 -2.269531 C 4.539062 -3.027344 4.777344 -3.839844 5.09375 -4.609375 C 5.402344 -5.375 5.773438 -6.074219 6.207031 -6.585938 C 6.636719 -7.097656 7.132812 -7.40625 7.6875 -7.40625 C 8.367188 -7.40625 8.835938 -7.070312 9.082031 -6.152344 C 9.332031 -5.234375 9.375 -3.726562 9.234375 -1.394531 C 9.199219 -0.804688 9.25 -0.40625 9.453125 -0.140625 C 9.65625 0.125 10 0.246094 10.539062 0.246094 C 10.9375 0.246094 11.261719 0.125 11.492188 -0.210938 C 11.722656 -0.546875 11.871094 -1.078125 11.933594 -1.914062 C 12.101562 -4.394531 12.003906 -6.277344 11.476562 -7.519531 C 10.945312 -8.765625 9.976562 -9.402344 8.386719 -9.402344 C 7.40625 -9.402344 6.621094 -9.019531 5.992188 -8.457031 C 5.359375 -7.890625 4.882812 -7.140625 4.539062 -6.375 C 4.183594 -5.605469 3.964844 -4.835938 3.832031 -4.261719 C 3.832031 -4.324219 3.832031 -4.441406 3.839844 -4.617188 C 3.839844 -4.785156 3.839844 -4.996094 3.847656 -5.242188 C 3.847656 -5.492188 3.847656 -5.765625 3.859375 -6.0625 C 3.867188 -6.363281 3.867188 -6.664062 3.875 -6.964844 C 3.882812 -7.679688 3.902344 -8.464844 3.917969 -9.320312 L 1.289062 -9.109375 L 1.289062 -0.078125 C 1.808594 -0.0898438 2.058594 0 2.304688 0.078125 C 2.542969 0.160156 2.753906 0.246094 3.214844 0.246094 Z M 3.214844 0.246094 "/></g></g></g><g fill="#ffffff" fill-opacity="1"><g transform="translate(265.874521, 18.711619)"><g><path d="M 5.886719 3.902344 C 6.65625 3.910156 7.476562 3.761719 8.21875 3.398438 C 8.960938 3.035156 9.628906 2.460938 10.125 1.652344 C 10.609375 0.839844 10.910156 -0.21875 10.910156 -1.5625 C 10.910156 -2.375 10.855469 -3.238281 10.8125 -4.140625 C 10.769531 -5.039062 10.726562 -5.96875 10.734375 -6.921875 C 10.664062 -6.945312 10.582031 -6.972656 10.496094 -7 L 9.921875 -7.160156 L 10.203125 -7.785156 C 9.734375 -8.21875 9.199219 -8.632812 8.5 -8.933594 C 7.804688 -9.234375 6.945312 -9.410156 5.851562 -9.410156 C 5.003906 -9.410156 4.15625 -9.25 3.390625 -8.898438 C 2.613281 -8.542969 1.941406 -8.007812 1.449219 -7.238281 C 0.945312 -6.46875 0.625 -5.480469 0.582031 -4.246094 C 0.519531 -2.949219 0.828125 -1.828125 1.464844 -1.03125 C 2.09375 -0.238281 3.046875 0.238281 4.308594 0.238281 C 5.683594 0.238281 6.539062 -0.160156 7.125 -0.804688 C 7.707031 -1.449219 8.023438 -2.355469 8.332031 -3.40625 C 8.332031 -3.179688 8.339844 -2.894531 8.367188 -2.570312 C 8.394531 -2.242188 8.402344 -1.863281 8.402344 -1.4375 C 8.402344 -0.898438 8.332031 -0.414062 8.191406 0.0195312 C 7.910156 0.875 7.441406 1.507812 6.859375 1.890625 C 6.277344 2.277344 5.710938 2.355469 5.253906 2.367188 C 4.785156 2.375 4.371094 2.355469 4.015625 2.332031 C 3.839844 2.320312 3.691406 2.320312 3.558594 2.339844 C 3.300781 2.375 3.140625 2.472656 3.132812 2.746094 C 3.105469 3.0625 3.195312 3.273438 3.335938 3.417969 C 3.46875 3.558594 3.65625 3.636719 3.859375 3.699219 C 4.148438 3.777344 4.414062 3.820312 4.722656 3.847656 C 5.03125 3.882812 5.394531 3.902344 5.886719 3.902344 Z M 5.015625 -1.472656 C 4.527344 -1.472656 4.097656 -1.703125 3.777344 -2.136719 C 3.460938 -2.570312 3.257812 -3.195312 3.257812 -4 C 3.257812 -5.199219 3.65625 -6.054688 4.21875 -6.621094 C 4.785156 -7.175781 5.515625 -7.433594 6.1875 -7.433594 C 6.957031 -7.433594 7.636719 -7.015625 8.191406 -6.460938 C 8.050781 -5.710938 7.882812 -4.90625 7.644531 -4.175781 C 7.398438 -3.433594 7.089844 -2.761719 6.664062 -2.269531 C 6.242188 -1.773438 5.710938 -1.472656 5.015625 -1.472656 Z M 5.015625 -1.472656 "/></g></g></g><g fill="#ffffff" fill-opacity="1"><g transform="translate(213.516655, 43.650805)"><g><path d="M 5.410156 0.21875 C 6.753906 0.21875 8.03125 -0.113281 8.996094 -0.75 C 9.949219 -1.386719 10.574219 -2.304688 10.636719 -3.496094 C 10.671875 -4.476562 10.328125 -5.207031 9.78125 -5.773438 C 9.234375 -6.335938 8.464844 -6.742188 7.660156 -7.0625 C 8.367188 -7.378906 8.855469 -7.8125 9.171875 -8.296875 C 9.480469 -8.78125 9.621094 -9.304688 9.621094 -9.796875 C 9.621094 -10.644531 9.171875 -11.351562 8.429688 -11.847656 C 7.6875 -12.332031 6.648438 -12.605469 5.445312 -12.605469 C 4.140625 -12.605469 3.046875 -12.289062 2.269531 -11.703125 C 1.492188 -11.121094 1.042969 -10.273438 1.042969 -9.222656 C 1.042969 -8.542969 1.289062 -8.015625 1.703125 -7.589844 C 2.117188 -7.167969 2.683594 -6.851562 3.308594 -6.578125 C 3.070312 -6.558594 2.851562 -6.496094 2.65625 -6.398438 C 2.128906 -6.195312 1.527344 -5.871094 1.050781 -5.347656 C 0.574219 -4.820312 0.230469 -4.097656 0.230469 -3.117188 C 0.230469 -2.101562 0.6875 -1.269531 1.570312 -0.6875 C 2.453125 -0.105469 3.75 0.21875 5.410156 0.21875 Z M 6.097656 -7.601562 C 5.367188 -7.820312 4.703125 -8.03125 4.21875 -8.28125 C 3.726562 -8.527344 3.417969 -8.828125 3.417969 -9.242188 C 3.417969 -9.710938 3.644531 -10.089844 4.007812 -10.363281 C 4.371094 -10.636719 4.890625 -10.785156 5.464844 -10.785156 C 6.136719 -10.785156 6.628906 -10.609375 6.964844 -10.34375 C 7.300781 -10.082031 7.457031 -9.71875 7.46875 -9.390625 C 7.46875 -8.941406 7.28125 -8.597656 7.007812 -8.316406 C 6.734375 -8.03125 6.390625 -7.804688 6.097656 -7.601562 Z M 5.296875 -1.710938 C 4.441406 -1.710938 3.820312 -1.914062 3.417969 -2.234375 C 3.011719 -2.542969 2.816406 -2.957031 2.824219 -3.40625 C 2.832031 -4.015625 3.152344 -4.546875 3.574219 -4.96875 C 4 -5.394531 4.539062 -5.71875 5.023438 -5.933594 C 5.789062 -5.65625 6.515625 -5.394531 7.042969 -5.023438 C 7.574219 -4.652344 7.917969 -4.183594 7.917969 -3.539062 C 7.917969 -3.082031 7.695312 -2.628906 7.257812 -2.285156 C 6.816406 -1.933594 6.152344 -1.710938 5.296875 -1.710938 Z M 5.296875 -1.710938 "/></g></g></g><g fill="#ffffff" fill-opacity="1"><g transform="translate(224.722506, 43.650805)"><g><path d="M 4.253906 0.300781 C 4.34375 0.300781 4.441406 0.28125 4.539062 0.257812 C 4.730469 0.203125 4.90625 0.0976562 5.015625 -0.0898438 C 5.507812 -0.996094 6.117188 -2.082031 6.777344 -3.230469 L 8.816406 -6.761719 C 9.496094 -7.925781 10.152344 -9.054688 10.714844 -10.046875 C 11.273438 -11.023438 11.730469 -11.855469 12.039062 -12.445312 L 10.714844 -12.886719 C 10.1875 -12.003906 9.550781 -10.929688 8.871094 -9.773438 C 8.527344 -9.1875 8.183594 -8.597656 7.820312 -7.988281 C 7.457031 -7.378906 7.105469 -6.769531 6.761719 -6.179688 C 6.0625 -4.976562 5.402344 -3.839844 4.847656 -2.859375 C 4.28125 -1.878906 3.820312 -1.078125 3.539062 -0.574219 C 3.503906 -0.511719 3.488281 -0.441406 3.488281 -0.363281 C 3.488281 -0.273438 3.503906 -0.183594 3.546875 -0.105469 C 3.617188 0.0703125 3.785156 0.230469 4.035156 0.265625 C 4.085938 0.292969 4.15625 0.300781 4.253906 0.300781 Z M 3.671875 -6.011719 C 4.625 -6.011719 5.515625 -6.265625 6.171875 -6.816406 C 6.824219 -7.363281 7.230469 -8.210938 7.230469 -9.402344 C 7.230469 -10.363281 6.9375 -11.191406 6.410156 -11.785156 C 5.871094 -12.375 5.085938 -12.71875 4.097656 -12.71875 C 2.71875 -12.71875 1.792969 -12.289062 1.199219 -11.632812 C 0.609375 -10.980469 0.371094 -10.105469 0.378906 -9.234375 C 0.378906 -8.84375 0.476562 -8.429688 0.644531 -8.113281 C 0.8125 -7.792969 1.050781 -7.574219 1.339844 -7.539062 L 0.925781 -7.246094 C 1.5 -6.390625 2.445312 -6.011719 3.671875 -6.011719 Z M 3.671875 -7.449219 C 2.976562 -7.449219 2.5 -7.8125 2.257812 -8.175781 L 2.039062 -8.015625 C 2.109375 -8.304688 2.117188 -8.703125 2.109375 -9.152344 C 2.101562 -9.605469 2.179688 -10.125 2.453125 -10.539062 C 2.726562 -10.953125 3.195312 -11.246094 3.964844 -11.246094 C 4.308594 -11.246094 4.667969 -11.121094 4.953125 -10.820312 C 5.234375 -10.523438 5.4375 -10.0625 5.4375 -9.402344 C 5.4375 -8.6875 5.207031 -8.199219 4.871094 -7.890625 C 4.539062 -7.574219 4.085938 -7.449219 3.671875 -7.449219 Z M 11.535156 0.230469 C 12.492188 0.230469 13.382812 -0.0273438 14.035156 -0.574219 C 14.6875 -1.121094 15.09375 -1.96875 15.09375 -3.160156 C 15.09375 -4.121094 14.804688 -4.953125 14.273438 -5.542969 C 13.734375 -6.136719 12.949219 -6.480469 11.960938 -6.480469 C 10.582031 -6.480469 9.65625 -6.046875 9.066406 -5.394531 C 8.472656 -4.738281 8.234375 -3.867188 8.246094 -2.992188 C 8.246094 -2.59375 8.339844 -2.179688 8.507812 -1.863281 C 8.675781 -1.542969 8.925781 -1.324219 9.214844 -1.296875 L 8.792969 -0.996094 C 9.367188 -0.148438 10.308594 0.230469 11.535156 0.230469 Z M 11.535156 -1.210938 C 10.839844 -1.210938 10.363281 -1.570312 10.125 -1.933594 L 9.902344 -1.773438 C 9.976562 -2.066406 9.984375 -2.460938 9.976562 -2.914062 C 9.964844 -3.363281 10.046875 -3.882812 10.320312 -4.296875 C 10.59375 -4.714844 11.058594 -5.003906 11.828125 -5.003906 C 12.171875 -5.003906 12.535156 -4.882812 12.816406 -4.582031 C 13.097656 -4.28125 13.300781 -3.820312 13.300781 -3.160156 C 13.300781 -2.445312 13.074219 -1.960938 12.738281 -1.652344 C 12.402344 -1.332031 11.953125 -1.210938 11.535156 -1.210938 Z M 11.535156 -1.210938 "/></g></g></g></svg>